<svg width="572" height="92" viewBox="0 0 572 92" fill="none" xmlns="http://www.w3.org/2000/svg">
<rect opacity="0.2" width="572" height="92" rx="46" fill="#95A8BB"/>
<rect x="12" y="12.6627" width="66.6746" height="66.6746" rx="33.3373" fill="#2684FF"/>
<path fill-rule="evenodd" clip-rule="evenodd" d="M32.926 36.9932C31.2244 35.2915 29.5227 33.5899 31.2244 31.8882C32.926 30.1865 34.6277 31.8882 36.3294 33.5899C38.0248 35.2853 54.5965 51.5561 54.5965 51.5561C55.1377 51.0149 54.5965 47.852 56.4485 45.9999C58.3006 44.1478 60.1527 45.2303 60.1527 47.852C60.1527 51.2553 60.1527 50.0049 60.1527 53.4082C60.1527 60.8165 60.1527 60.8165 52.7444 60.8165C49.3411 60.8165 50.5915 60.8165 47.1882 60.8165C44.6301 60.8165 43.8778 58.8155 45.3361 57.1123C46.7944 55.4092 50.3193 55.8333 50.8923 55.2603C50.8923 55.2603 32.926 36.9932 32.926 36.9932Z" fill="white"/>
<path fill-rule="evenodd" clip-rule="evenodd" d="M100.898 36.7397V33.0355C100.898 33.0355 100.898 31.1835 102.751 31.1835H128.68C130.532 31.1835 130.532 33.0355 130.532 33.0355V36.7397C130.532 38.5918 128.68 38.5918 128.68 38.5918H126.827C126.827 34.8876 123.123 34.8876 123.123 34.8876H119.419V55.2604L123.123 58.9645C124.975 58.9645 123.123 60.8166 123.123 60.8166H108.307C108.307 60.8166 106.455 58.9645 108.307 58.9645L112.011 55.2604V34.8876H108.307C108.307 34.8876 104.603 34.8876 104.603 38.5918H102.751C100.898 38.5918 100.898 36.7397 100.898 36.7397Z" fill="#8396AF"/>
<path fill-rule="evenodd" clip-rule="evenodd" d="M163.343 31.1833C158.404 31.1833 156.758 32.8296 156.758 37.7685V54.2313C156.758 59.1702 158.404 60.8165 163.343 60.8165H179.806C184.745 60.8165 186.391 59.1702 186.391 54.2313V37.7685C186.391 32.8296 184.745 31.1833 179.806 31.1833H163.343ZM160.462 51.5562V40.4438C160.462 37.6657 160.462 36.2766 161.157 35.5821C161.851 34.8875 163.24 34.8875 166.018 34.8875H177.131C179.909 34.8875 181.298 34.8875 181.992 35.5821C182.687 36.2766 182.687 37.6657 182.687 40.4438V51.5562C182.687 54.3343 182.687 55.7233 181.992 56.4179C181.298 57.1124 179.909 57.1124 177.131 57.1124H166.018C163.24 57.1124 161.851 57.1124 161.157 56.4179C160.462 55.7233 160.462 54.3343 160.462 51.5562Z" fill="#8396AF"/>
<line opacity="0.2" x1="205.541" y1="23.7751" x2="205.541" y2="68.2249" stroke="white" stroke-width="1.85207"/>
<path fill-rule="evenodd" clip-rule="evenodd" d="M226.84 45.9999C226.84 36.7942 234.303 29.3313 243.508 29.3313C252.714 29.3313 260.177 36.7942 260.177 45.9999C260.177 55.2058 252.714 62.6686 243.508 62.6686C234.303 62.6686 226.84 55.2058 226.84 45.9999ZM235.841 48.7719C234.377 48.4455 233.12 49.7939 233.889 51.0821C235.485 53.7539 238.49 57.1123 243.51 57.1123C248.531 57.1123 251.534 53.7538 253.128 51.0819C253.897 49.7936 252.64 48.4457 251.176 48.7722C249.09 49.2371 246.301 49.704 243.51 49.704C240.719 49.704 237.928 49.2369 235.841 48.7719ZM237.953 45.0738C239.342 45.0738 240.731 43.6848 240.731 42.2957C240.731 40.9067 239.342 39.5176 237.953 39.5176C236.563 39.5176 235.174 40.9067 235.174 42.2957C235.174 43.6848 236.563 45.0738 237.953 45.0738ZM251.843 42.2957C251.843 43.6848 250.454 45.0738 249.065 45.0738C247.676 45.0738 246.287 43.6848 246.287 42.2957C246.287 40.9067 247.676 39.5176 249.065 39.5176C250.454 39.5176 251.843 40.9067 251.843 42.2957Z" fill="#8396AF"/>
<path fill-rule="evenodd" clip-rule="evenodd" d="M282.402 50.6303V39.5179C282.402 35.8137 286.106 35.8137 286.106 35.8137H300.963C300.963 35.8137 300.923 39.5179 302.775 39.5179H304.627C304.627 39.5179 304.627 43.222 306.479 43.222H310.183C310.183 43.222 312.035 42.296 312.035 39.5179H313.888C315.74 39.5179 315.74 37.6658 315.74 37.6658V39.5179V52.4824L313.888 52.4823V52.4824H313.888L310.183 48.7782C310.183 48.7782 309.257 47.8522 308.331 47.8522C307.405 47.8522 306.479 48.7782 306.479 48.7782L300.963 54.3344L293.515 45.0741C293.515 45.0741 292.589 44.148 291.663 44.148C290.737 44.148 289.811 45.0741 289.811 45.0741L284.254 50.6303H282.403V50.6303H282.402ZM282.403 50.6303V58.0385C282.403 61.7427 286.107 61.7427 286.107 61.7427H304.628H306.48V59.8906H304.628H286.107C284.255 59.8906 284.255 58.0385 284.255 58.0385V56.1865V54.3344V50.6303H284.254L284.254 50.6303H282.403ZM313.888 52.4824V58.0386C313.888 59.8906 312.036 59.9111 312.036 59.9111H306.48V61.7427H312.036C315.74 61.7427 315.74 58.0386 315.74 58.0386V52.4823L315.74 52.4824H313.888ZM299.072 43.2219C299.072 44.2448 298.242 45.074 297.22 45.074C296.197 45.074 295.368 44.2448 295.368 43.2219C295.368 42.199 296.197 41.3698 297.22 41.3698C298.242 41.3698 299.072 42.199 299.072 43.2219Z" fill="#8396AF"/>
<path fill-rule="evenodd" clip-rule="evenodd" d="M302.775 35.8137C302.775 36.7397 302.775 37.6657 303.701 37.6657H306.48C306.48 37.6657 306.48 39.5178 306.48 40.4438C306.48 41.3699 307.406 41.3699 308.332 41.3699C309.258 41.3699 310.184 41.3699 310.184 40.4438C310.184 39.5178 310.184 37.6657 310.184 37.6657C310.184 37.6657 312.036 37.6657 312.962 37.6657C313.888 37.6657 313.888 35.8137 313.888 35.8137C313.888 35.8137 313.888 33.9616 312.962 33.9616C312.036 33.9616 310.184 33.9616 310.184 33.9616C310.184 33.9616 310.184 32.1095 310.184 31.1835C310.184 30.2574 309.258 30.2574 308.332 30.2574C307.406 30.2574 306.48 30.2574 306.48 31.1835C306.48 32.1095 306.48 33.9616 306.48 33.9616H303.701C302.775 33.9616 302.775 34.8876 302.775 35.8137Z" fill="#8396AF"/>
<rect opacity="0.628114" x="337.965" y="31.1835" width="7.40828" height="7.40828" fill="#8396AF"/>
<rect opacity="0.705559" x="337.965" y="38.5917" width="7.40828" height="7.40828" fill="#8396AF"/>
<rect opacity="0.851506" x="337.965" y="46" width="7.40828" height="7.40828" fill="#8396AF"/>
<rect opacity="0.914459" x="337.965" y="53.4083" width="7.40828" height="7.40828" fill="#8396AF"/>
<rect opacity="0.609262" x="345.373" y="53.4083" width="7.40828" height="7.40828" fill="#8396AF"/>
<rect opacity="0.763191" x="345.373" y="46" width="7.40828" height="7.40828" fill="#8396AF"/>
<rect opacity="0.265851" x="345.373" y="38.5917" width="7.40828" height="7.40828" fill="#8396AF"/>
<rect opacity="0.916327" x="345.373" y="31.1835" width="7.40828" height="7.40828" fill="#8396AF"/>
<rect opacity="0.753567" x="352.781" y="31.1835" width="7.40828" height="7.40828" fill="#8396AF"/>
<rect opacity="0.897702" x="352.781" y="38.5917" width="7.40828" height="7.40828" fill="#8396AF"/>
<rect opacity="0.674479" x="352.781" y="46" width="7.40828" height="7.40828" fill="#8396AF"/>
<rect x="352.781" y="53.4083" width="7.40828" height="7.40828" fill="#8396AF"/>
<rect opacity="0.89538" x="360.189" y="53.4083" width="7.40828" height="7.40828" fill="#8396AF"/>
<rect opacity="0.360564" x="360.189" y="46" width="7.40828" height="7.40828" fill="#8396AF"/>
<rect x="360.189" y="38.5917" width="7.40828" height="7.40828" fill="#8396AF"/>
<rect opacity="0.387115" x="360.189" y="31.1835" width="7.40828" height="7.40828" fill="#8396AF"/>
<line opacity="0.2" x1="390.75" y1="23.7751" x2="390.75" y2="68.2249" stroke="white" stroke-width="1.85207"/>
<path d="M439.83 46C439.83 53.1601 434.025 58.9645 426.865 58.9645C419.705 58.9645 413.901 53.1601 413.901 46C413.901 38.84 419.705 33.0355 426.865 33.0355L436.028 33.0355L439.83 33.0355V33.0584V33.0849V33.1116V33.1384V33.1653V33.1924V33.2197V33.247V33.2746V33.3022V33.33V33.358V33.386V33.4143V33.4426V33.4711V33.4997V33.5285V33.5574V33.5864V33.6156V33.6449V33.6743V33.7038V33.7335V33.7633V33.7932V33.8233V33.8535V33.8838V33.9142V33.9447V33.9754V34.0062V34.0371V34.0681V34.0993V34.1305V34.1619V34.1934V34.225V34.2567V34.2886V34.3205V34.3526V34.3848V34.417V34.4494V34.4819V34.5145V34.5472V34.58V34.6129V34.646V34.6791V34.7123V34.7456V34.7791V34.8126V34.8462V34.8799V34.9137V34.9476V34.9816V35.0157V35.0499V35.0842V35.1186V35.1531V35.1876V35.2223V35.257V35.2918V35.3267V35.3617V35.3968V35.432V35.4672V35.5025V35.5379V35.5734V35.609V35.6446V35.6804V35.7162V35.752V35.788V35.824V35.8601V35.8963V35.9325V35.9688V36.0052V36.0417V36.0782V36.1148V36.1514V36.1881V36.2249V36.2618V36.2987V36.3357V36.3727V36.4098V36.447V36.4842V36.5214V36.5588V36.5962V36.6336V36.6711V36.7087V36.7463V36.7839V36.8216V36.8594V36.8972V36.935V36.9729V37.0109V37.0489V37.0869V37.125V37.1631V37.2013V37.2395V37.2778V37.3161V37.3544V37.3928V37.4312V37.4696V37.5081V37.5466V37.5852V37.6238V37.6624V37.7011V37.7397V37.7784V37.8172V37.8559V37.8947V37.9336V37.9724V38.0113V38.0502V38.0891V38.128V38.167V38.206V38.245V38.284V38.323V38.3621V38.4012V38.4402V38.4793V38.5185V38.5576V38.5967V38.6359V38.675V38.7142V38.7534V38.7926V38.8318V38.871V38.9102V38.9494V38.9886V39.0278V39.067V39.1062V39.1454V39.1847V39.2239V39.2631V39.3023V39.3415V39.3807V39.4199V39.4591V39.4982V39.5374V39.5766V39.6157V39.6548V39.694V39.7331V39.7722V39.8113V39.8503V39.8894V39.9284V39.9674V40.0064V40.0454V40.0844V40.1233V40.1622V40.2011V40.24V40.2788V40.3176V40.3564V40.3952V40.4339V40.4726V40.5113V40.5499V40.5885V40.6271V40.6657V40.7042V40.7427V40.7811V40.8195V40.8579V40.8962V40.9345V40.9727V41.0109V41.0491V41.0872V41.1253V41.1633V41.2013V41.2393V41.2772V41.315V41.3528V41.3906V41.4283V41.4659V41.5035V41.541V41.5785V41.616V41.6533V41.6907V41.7279V41.7651V41.8023V41.8394V41.8764V41.9134V41.9503V41.9871V42.0239V42.0606V42.0972V42.1338V42.1703V42.2067V42.2431V42.2794V42.3156V42.3518V42.3879V42.4239V42.4598V42.4957V42.5315V42.5672V42.6028V42.6384V42.6738V42.7092V42.7445V42.7798V42.8149V42.85V42.885V42.9198V42.9547V42.9894V43.024V43.0585V43.093V43.1273V43.1616V43.1958V43.2299V43.2639V43.2978V43.3316V43.3653V43.3989V43.4324V43.4658V43.4991V43.5323V43.5654V43.5984V43.6313V43.6641V43.6968V43.7293V43.7618V43.7942V43.8264V43.8586V43.8906V43.9226V43.9544V43.9861V44.0177V44.0491V44.0805V44.1117V44.1429V44.1739V44.2048V44.2355V44.2662V44.2967V44.3271V44.3574V44.3875V44.4176V44.4475V44.4773V44.5069V44.5364V44.5658V44.5951V44.6242V44.6532V44.6821V44.7108V44.7394V44.7679V44.7962V44.8244V44.8525V44.8804V44.9082V44.9358V44.9633V44.9907V45.0179V45.0449V45.0719V45.0987V45.1253V45.1518V45.1781V45.2043V45.2303V45.2562V45.282V45.3075V45.333V45.3582V45.3834V45.4083V45.4331V45.4578V45.4823V45.5066V45.5308V45.5548V45.5787V45.6024V45.6259V45.6493V45.6725V45.6955V45.7184V45.7411V45.7636V45.7859V45.8081V45.8302V45.852V45.8737V45.8952V45.9165V45.9377V45.9586V45.9794V46Z" fill="#F10E0E" stroke="white" stroke-width="3.70414"/>
<path opacity="0.5" fill-rule="evenodd" clip-rule="evenodd" d="M487.901 59.6349C484.485 62.7615 482.615 58.8775 484.233 57.2473C497.168 44.2154 482.385 27.4601 469.45 40.492H473.146C474.248 40.4402 474.921 41.4234 474.994 42.3537C474.921 43.4978 474.248 44.3475 473.146 44.3718H465.506C464.331 44.3475 463.906 43.8674 463.906 42.7232V33.0452C463.906 31.8799 464.579 31.1835 465.754 31.1835C466.654 31.1835 467.615 31.8799 467.602 33.0452C467.589 34.2104 467.602 36.7686 467.602 36.7686C485.673 21.43 502.712 46.0768 487.901 59.6349Z" fill="#8396AF"/>
<path opacity="0.5" fill-rule="evenodd" clip-rule="evenodd" d="M521.404 59.6349C524.82 62.7615 526.69 58.8775 525.072 57.2473C512.137 44.2154 526.92 27.4601 539.855 40.492H536.159C535.057 40.4402 534.384 41.4234 534.311 42.3537C534.384 43.4978 535.057 44.3475 536.159 44.3718H543.799C544.973 44.3475 545.398 43.8674 545.398 42.7232V33.0452C545.398 31.8799 544.725 31.1835 543.551 31.1835C542.651 31.1835 541.689 31.8799 541.703 33.0452C541.716 34.2104 541.703 36.7686 541.703 36.7686C523.631 21.43 506.593 46.0768 521.404 59.6349Z" fill="#8396AF"/>
</svg>
