<svg width="123" height="49" viewBox="0 0 123 49" fill="none" xmlns="http://www.w3.org/2000/svg">
<path d="M80.8798 34.0539C75.7908 37.6706 69.7736 41.4473 63.3084 45.3841L63.0523 45.5441C62.9563 45.6081 62.9563 45.7362 63.0203 45.8002C63.0843 45.8962 63.2123 45.8962 63.2763 45.8322L63.5004 45.7042C68.9735 42.8556 75.2787 39.4309 81.6159 35.9422C81.6479 35.9102 81.6799 35.9102 81.7119 35.8782C81.3919 35.3661 81.1038 34.726 80.8798 34.0539V34.0539ZM114.198 7.07261C106.197 -1.76111 54.7307 6.17644 32.8384 10.9774L32.3263 11.0734C32.2303 11.1054 32.1663 11.2014 32.1663 11.2974C32.1983 11.3935 32.2943 11.4575 32.3903 11.4575L32.9024 11.3614C51.05 8.12882 88.7533 3.64794 96.8829 11.7135C99.3474 14.178 98.7713 17.3466 95.8907 21.0593C97.427 22.0515 98.5472 23.6198 99.0273 25.5722C110.23 18.1148 117.783 11.0094 114.198 7.07261Z" fill="#D03027"/>
<path d="M84.1444 31.7174C84.2404 34.822 86.2248 37.3505 88.7853 37.3505C93.7463 37.3505 95.8587 31.2693 95.7307 27.1725C95.6347 24.0679 93.6183 21.5074 91.0578 21.5074C86.7369 21.5714 83.9844 27.6206 84.1444 31.7174V31.7174ZM81.5199 31.5574C81.3279 26.2443 85.4887 20.8353 91.5059 20.8353C95.5386 20.8353 98.1632 23.5238 98.3232 27.6526C98.5152 33.2537 94.6425 38.3747 88.3372 38.3747C84.3045 38.3747 81.6479 35.6862 81.5199 31.5574ZM24.3888 30.1491C24.1647 30.2451 23.9087 30.3091 23.5566 30.3731C23.2045 30.4372 22.5964 30.5652 21.6682 30.6932C21.0281 30.7892 20.612 30.9173 20.356 31.1093C20.1319 31.3013 19.9719 31.4934 19.9399 31.7494C19.8759 32.0375 19.9719 32.2295 20.2279 32.4215C20.484 32.5816 20.8681 32.6776 21.4442 32.6776C21.8603 32.6776 22.2763 32.6136 22.6924 32.4856C23.1085 32.3575 23.4606 32.1655 23.7166 31.9415C23.9087 31.7814 24.0367 31.5574 24.1647 31.3013C24.1967 31.1413 24.2927 30.7572 24.3888 30.1491V30.1491ZM29.6378 26.9165C29.6058 27.3966 29.5418 27.8447 29.4137 28.5808L28.5176 33.5738C28.4535 34.0219 28.6136 34.3739 29.0297 34.598L28.9977 34.79H23.9087L23.8767 33.5098C23.1405 33.9578 22.2443 34.3419 21.4442 34.566C20.644 34.758 20.0039 34.854 19.0117 34.854C17.3794 34.854 16.4192 34.694 15.7791 34.1179C15.1069 33.5418 14.7869 33.1577 14.8189 32.3255C14.8509 31.8774 15.0749 31.2693 15.427 30.8532C15.7791 30.4372 16.2592 30.1491 16.7713 29.9251C17.2834 29.669 17.9235 29.509 18.8197 29.3489C19.7158 29.1889 20.9641 29.0609 22.6284 28.9329C23.4926 28.8689 24.0367 28.6448 24.2927 28.5488C24.6448 28.4208 24.7728 28.2607 24.8368 27.9727C24.9329 27.4606 24.7728 27.1725 24.1007 27.0445C22.2763 26.6924 18.8517 27.2685 17.0593 27.7166L18.0195 25.1241C20.356 24.7721 22.5324 24.58 24.8368 24.58C28.4856 24.516 29.6698 25.5722 29.6378 26.9165V26.9165ZM44.3607 34.758L46.121 24.8041H50.9859L49.2256 34.758H44.3607ZM46.377 22.4996C46.5371 21.6674 47.8173 21.0273 49.2576 21.0273C50.6979 21.0273 51.7541 21.6995 51.6261 22.4996C51.466 23.3318 50.1858 23.9719 48.7455 23.9719C47.2732 24.0039 46.249 23.3318 46.377 22.4996V22.4996ZM68.2373 30.1811C68.0133 30.2451 67.7252 30.3411 67.4052 30.4052C67.0531 30.5012 66.445 30.5972 65.5168 30.7252C64.8767 30.8212 64.4606 30.9493 64.2045 31.1413C63.9805 31.3013 63.8205 31.5254 63.7884 31.7814C63.7244 32.0695 63.8525 32.2935 64.0765 32.4536C64.3325 32.6136 64.7166 32.7096 65.2927 32.7096C65.7088 32.7096 66.1249 32.6456 66.541 32.5176C66.9571 32.3895 67.3091 32.1975 67.5652 31.9735C67.7572 31.8134 67.8852 31.5894 68.0133 31.3333C68.0453 31.1733 68.1413 30.7892 68.2373 30.1811ZM73.4863 26.9165C73.4543 27.3966 73.3903 27.8447 73.2303 28.5808L72.3341 33.5738C72.2701 34.0219 72.4301 34.3739 72.8142 34.598L72.7822 34.758H67.6932L67.6612 33.4778C66.9251 33.9258 66.0289 34.3099 65.2287 34.534C64.4286 34.758 63.7564 34.822 62.7962 34.822C61.1639 34.822 60.2358 34.662 59.5636 34.0859C58.8915 33.5098 58.5714 33.1257 58.6034 32.2935C58.6354 31.8134 58.8595 31.2373 59.2116 30.8212C59.5636 30.4052 60.0437 30.1171 60.5558 29.861C61.0679 29.605 61.708 29.445 62.5722 29.2849C63.4684 29.1569 64.7166 28.9969 66.413 28.8689C67.2771 28.8048 67.8212 28.6128 68.0773 28.5168C68.4293 28.3888 68.5574 28.2287 68.6214 27.9407C68.7174 27.4286 68.5574 27.1405 67.8852 27.0125C66.0609 26.6604 62.6362 27.2365 60.8439 27.6846L61.8041 25.0921C64.1405 24.74 66.3169 24.516 68.6214 24.516C72.3341 24.548 73.5183 25.5722 73.4863 26.9165V26.9165ZM14.1468 31.1733C12.5785 31.4934 11.6823 31.6214 10.114 31.6214C7.77751 31.6214 5.95316 30.4692 6.04918 28.3568C6.11319 26.9485 7.77751 23.9719 12.0343 23.9719C13.3786 23.9719 14.4028 24.1959 15.8111 24.9961L16.4192 21.5394C14.4988 20.8033 13.2506 20.7073 11.6183 20.7393C6.04918 20.8033 0.73614 23.3318 0.0640085 28.4528C-0.608123 33.6698 5.76112 34.982 8.57767 34.982C10.21 34.982 11.9063 34.918 13.5066 34.758L14.1468 31.1733V31.1733ZM53.6425 24.7721L53.9945 22.7557L59.0835 21.6354L58.5394 24.7721H61.0359L60.5558 26.7884H58.1553L56.6831 34.79C56.6831 34.79 51.7861 34.758 51.7541 34.79L53.2264 26.8205H51.37L51.7541 24.8041H53.6425V24.7721ZM78.4153 34.758H73.4543L75.9508 20.8993L80.7838 21.0273L78.4153 34.758ZM37.9274 27.1405C37.2873 27.1405 36.7112 27.3326 36.1991 27.7166C35.687 28.1007 35.3669 28.6768 35.2389 29.413C35.0788 30.2771 35.1749 30.9173 35.5269 31.3013C35.879 31.6854 36.3591 31.8774 37.0312 31.8774C37.4793 31.8774 37.9274 31.8134 38.2795 31.6214C38.6955 31.3973 38.9836 31.1733 39.2397 30.7892C39.4957 30.4052 39.6877 29.9891 39.7838 29.477C39.9118 28.6768 39.8158 28.1007 39.4317 27.7166C39.0476 27.3326 38.5355 27.1405 37.9274 27.1405V27.1405ZM29.0617 38.1827L31.4301 24.8681H35.687L35.3669 26.5644C35.751 26.0523 36.3271 25.6362 37.1592 25.2842C37.9914 24.9321 38.9196 24.708 39.9118 24.708C41.032 24.708 41.7041 24.7721 42.5363 25.1881C43.3685 25.6362 43.9446 26.2443 44.2646 27.0765C44.5847 27.8767 44.6487 28.8048 44.4887 29.797C44.2006 31.4294 43.4005 32.7416 42.0882 33.7018C40.776 34.662 39.6237 34.918 37.9274 34.918C37.3193 34.918 36.8392 34.854 36.4231 34.758C36.007 34.662 35.687 34.534 35.4629 34.3739C35.2389 34.2139 34.9828 33.9899 34.6628 33.6378L33.8626 38.2147H29.0617V38.1827ZM117.335 28.3568C117.303 27.5566 116.919 27.0125 116.087 27.0125C114.102 27.0125 111.958 30.9173 111.606 32.4856C114.87 32.5176 117.399 30.5652 117.335 28.3568ZM117.751 34.502L118.135 34.758C117.175 36.7424 115.19 38.3427 112.854 38.3427C110.966 38.3427 109.397 37.0624 109.301 34.694C109.141 30.4372 113.142 26.4684 116.407 26.4684C117.815 26.4684 119.095 27.0765 119.159 28.5808C119.287 31.9735 114.518 32.9977 111.382 33.0617C111.286 33.4137 111.254 33.7658 111.254 34.3099C111.318 35.7182 112.15 36.9024 113.91 36.9024C115.479 36.9024 116.983 35.6862 117.751 34.502V34.502Z" fill="#004977"/>
<path d="M98.2592 28.2607C98.6112 28.2287 99.1553 28.1647 99.3794 28.1647C99.7315 28.1647 100.084 28.2287 100.084 28.5808C100.084 28.8048 99.6994 30.3091 99.6354 30.6612L98.8673 33.9899C98.5472 35.3661 98.2272 36.8064 97.9391 37.9266H99.8915L100.98 32.6136C104.308 29.1249 105.621 28.0047 106.389 28.0047C106.741 28.0047 106.997 28.1967 106.997 28.6128C107.029 29.2209 106.645 30.6292 106.517 31.0133L105.397 34.886C105.141 35.7502 104.948 36.5504 104.98 37.0945C105.012 37.9586 105.525 38.3107 106.293 38.3107C107.701 38.3107 108.757 36.8384 109.653 35.3661L109.397 34.886C109.045 35.4621 108.181 36.7424 107.509 36.7424C107.285 36.7424 107.093 36.6144 107.093 36.2623C107.061 35.8142 107.253 35.1421 107.381 34.694L108.629 30.1811C108.949 28.9329 109.109 28.1327 109.109 27.7166C109.077 26.8845 108.597 26.4684 107.829 26.4684C106.549 26.4684 104.852 27.3966 101.236 31.5574H101.172L101.62 29.541C101.876 28.4208 102.1 27.2685 102.356 26.4684C101.108 26.9165 99.3154 27.4286 98.2272 27.6206L98.2592 28.2607V28.2607Z" fill="#004977"/>
<path d="M119.479 24.644C119.479 23.6519 120.279 22.9157 121.24 22.9157C122.168 22.9157 123 23.6519 123 24.644C123 25.6362 122.2 26.3724 121.24 26.3724C120.279 26.4044 119.479 25.6682 119.479 24.644ZM121.24 26.1163C122.008 26.1163 122.648 25.5082 122.648 24.6761C122.648 23.8439 122.04 23.2358 121.24 23.2358C120.439 23.2358 119.831 23.8439 119.831 24.6761C119.831 25.5082 120.439 26.1163 121.24 26.1163ZM120.888 25.6682H120.568V23.6839H121.336C121.816 23.6839 122.04 23.8439 122.04 24.26C122.04 24.612 121.816 24.7721 121.528 24.8041L122.104 25.6682H121.752L121.24 24.8041H120.888V25.6682V25.6682ZM121.24 24.548C121.496 24.548 121.72 24.516 121.72 24.228C121.72 23.9719 121.496 23.9399 121.272 23.9399H120.856V24.548H121.24V24.548Z" fill="#004977"/>
</svg>
