<svg width="200" height="28" viewBox="0 0 200 28" fill="none" xmlns="http://www.w3.org/2000/svg">
<path d="M7.10489 0.947266H24.9679L21.2373 6.24636H11.8708L11.2358 8.60236H19.6865C18.5451 10.3052 17.5546 11.8025 16.3511 13.5431H9.94876L8.32191 19.6096H2.12402L7.10489 0.947266Z" fill="#091D40"/>
<path d="M111.571 1.06641H105.054L108.668 12.5372L106.787 19.6097H112.985L114.68 13.3051L125.238 1.06641H117.902L113.08 7.26681L111.571 1.06641Z" fill="#091D40"/>
<path fill-rule="evenodd" clip-rule="evenodd" d="M93.9102 12.3135C90.4665 11.0421 89.0777 9.9158 89.0777 7.1872C89.0777 3.60965 92.3632 0.697266 97.4206 0.697266C100.732 0.697266 103.673 1.75719 105.684 3.47874L102.136 7.71489C100.732 6.57743 98.7458 5.65145 96.7866 5.65145C95.99 5.65145 95.4337 5.86293 95.4337 6.39113C95.4337 6.91046 95.7802 7.03849 97.9171 7.82793C98.0696 7.88427 98.2312 7.94398 98.4024 8.00744C101.524 9.16203 103.528 10.4732 103.566 13.2527L103.56 13.3308C103.56 17.066 100.487 19.9783 95.1637 19.9783C92.1189 19.9783 89.411 19.066 87.2906 17.6007L87.5912 19.6088H80.9966L80.6788 17.1193H74.1894L72.5731 19.6088H65.8203L78.6466 0.93644H84.7922L86.9719 15.4854L89.5746 12.3766C91.6929 14.151 93.8657 14.9995 95.8249 14.9995C96.6194 14.9995 97.1768 14.7074 97.1768 14.1797C97.1768 13.5952 96.6917 13.3577 93.9908 12.3511L93.9102 12.3135ZM80.3096 12.733H76.9178L79.8051 8.22949L80.3096 12.733Z" fill="#091D40"/>
<path fill-rule="evenodd" clip-rule="evenodd" d="M61.702 6.31269H56.6688L53.0998 19.61H47.5892L43.1924 10.3915L40.7015 19.61H29.2393L28.9225 17.1206H22.4321L20.8158 19.61H14.0625L26.8807 0.935547H33.0273L35.3747 16.5609L39.5363 1.06646H45.3369L49.5504 9.91615L51.9336 1.06646H77.0711L73.5283 6.31269H67.8999L64.3239 19.6088H58.1245L61.702 6.31269ZM28.5645 12.7169L28.0742 8.21216L25.1953 12.7169H28.5645Z" fill="#091D40"/>
<path d="M183.748 11.6084C186.396 12.6432 187.164 13.3038 187.164 14.4181C187.147 14.8048 187.086 14.9866 186.98 15.3019C186.52 16.3286 185.248 16.9761 183.63 16.9872C181.374 16.9872 179.477 16.0518 177.999 14.3663L175.557 16.4153C177.954 18.7885 179.566 19.6167 183.441 19.8738C187.344 19.8587 190.636 17.5576 190.636 13.9392C190.636 11.3713 188.86 10.0732 186.027 8.96039C183.351 7.90047 182.425 7.31739 182.425 6.12605C182.425 4.88083 183.696 3.68899 185.866 3.68899C187.801 3.68899 189.231 4.43219 190.636 5.80832L192.913 3.58375C191.403 1.91456 189.178 0.80127 186.104 0.80127C182.133 0.80127 178.98 3.13309 178.98 6.62957C178.98 9.19855 180.914 10.471 183.748 11.6084Z" fill="#FBD528"/>
<path fill-rule="evenodd" clip-rule="evenodd" d="M120.776 19.6087L125.755 1.06641H131.609C134.125 1.06641 135.953 1.59763 137.224 2.89521C138.126 3.79551 138.603 5.01354 138.603 6.5508C138.603 11.0075 134.821 13.572 129.613 13.5951L125.676 13.5956L124.061 19.6092L120.776 19.6087ZM134.119 9.39063C134.837 8.74511 135.23 7.87603 135.23 6.81611C135.23 6.07341 134.99 5.46415 134.514 4.98882C133.878 4.35135 132.897 4.03413 131.52 4.03413H128.236L126.462 10.7093H129.763C131.672 10.7023 133.176 10.2381 134.119 9.39063Z" fill="#FBD528"/>
<path fill-rule="evenodd" clip-rule="evenodd" d="M168.145 0.749023C173.124 0.749023 176.49 4.27219 176.49 8.88146C176.377 10.9714 176.07 11.9587 175.38 13.6116C173.579 17.4791 169.758 19.9268 165.471 19.9268C160.49 19.9268 157.153 16.4052 157.153 11.7959C157.153 5.81311 162.147 0.749023 168.145 0.749023ZM172.054 12.9946C172.727 11.7765 173.1 10.4019 173.1 9.06353C173.1 6.01721 171.139 3.73926 167.829 3.73926C163.536 3.73926 160.544 7.81882 160.544 11.6058V11.674C160.544 14.7299 162.805 17.086 165.943 16.9291C168.542 16.9291 170.801 15.2787 172.02 13.0713L172.054 12.9946Z" fill="#FBD528"/>
<path fill-rule="evenodd" clip-rule="evenodd" d="M137.151 19.9251L142.13 1.38281H148.859C151.455 1.38281 153.283 1.9664 154.474 3.18543C155.347 4.05855 155.825 5.27657 155.825 6.68191C155.825 8.40346 155.215 9.85815 154.131 10.9201C152.868 12.2089 151.201 12.7416 149.494 13.1455L152.937 19.927H149.203L146.025 13.4642H142.156L140.435 19.927L137.151 19.9251ZM143.212 10.2356H147.423C149.384 10.2356 150.92 9.73405 151.793 8.83224C152.375 8.24765 152.72 7.50847 152.72 6.60716C152.72 5.91834 152.482 5.36245 152.058 4.9133C151.448 4.32871 150.442 4.01149 148.959 4.01149H144.906L143.212 10.2356Z" fill="#FBD528"/>
<path fill-rule="evenodd" clip-rule="evenodd" d="M4.79759 27.4522H0L1.09114 23.3872H5.88772L4.79759 27.4522Z" fill="#091D40"/>
<path fill-rule="evenodd" clip-rule="evenodd" d="M10.6814 27.4522H5.88379L6.97543 23.3872H11.771L10.6814 27.4522Z" fill="#091D40"/>
<path fill-rule="evenodd" clip-rule="evenodd" d="M16.5632 27.4522H11.7676L12.8577 23.3872H17.6543L16.5632 27.4522Z" fill="#091D40"/>
<path fill-rule="evenodd" clip-rule="evenodd" d="M22.4479 27.4522H17.6514L18.7435 23.3872H23.5391L22.4479 27.4522Z" fill="#091D40"/>
<path fill-rule="evenodd" clip-rule="evenodd" d="M28.3083 27.4522H23.5107L24.6029 23.3872H29.3995L28.3083 27.4522Z" fill="#091D40"/>
<path fill-rule="evenodd" clip-rule="evenodd" d="M34.1911 27.4522H29.3945L30.4867 23.3872H35.2822L34.1911 27.4522Z" fill="#091D40"/>
<path fill-rule="evenodd" clip-rule="evenodd" d="M40.0764 27.4522H35.2783L36.373 23.3872H41.1675L40.0764 27.4522Z" fill="#091D40"/>
<path fill-rule="evenodd" clip-rule="evenodd" d="M45.9597 27.4522H41.1621L42.2548 23.3872H47.0503L45.9597 27.4522Z" fill="#091D40"/>
<path fill-rule="evenodd" clip-rule="evenodd" d="M51.844 27.4522H47.0459L48.1391 23.3872H52.9351L51.844 27.4522Z" fill="#091D40"/>
<path fill-rule="evenodd" clip-rule="evenodd" d="M57.7268 27.4522H52.9297L54.0223 23.3872H58.8199L57.7268 27.4522Z" fill="#091D40"/>
<path fill-rule="evenodd" clip-rule="evenodd" d="M63.609 27.4522H58.8135L59.9046 23.3872H64.7017L63.609 27.4522Z" fill="#091D40"/>
<path fill-rule="evenodd" clip-rule="evenodd" d="M69.4709 27.4522H64.6729L65.7655 23.3872H70.5631L69.4709 27.4522Z" fill="#091D40"/>
<path fill-rule="evenodd" clip-rule="evenodd" d="M75.3542 27.4522H70.5566L71.6498 23.3872H76.4464L75.3542 27.4522Z" fill="#091D40"/>
<path fill-rule="evenodd" clip-rule="evenodd" d="M81.238 27.4522H76.4404L77.5326 23.3872H82.3282L81.238 27.4522Z" fill="#091D40"/>
<path fill-rule="evenodd" clip-rule="evenodd" d="M87.1183 27.4522H82.3242L83.4159 23.3872H88.2114L87.1183 27.4522Z" fill="#091D40"/>
<path fill-rule="evenodd" clip-rule="evenodd" d="M93.0041 27.4522H88.208L89.2986 23.3872H94.0962L93.0041 27.4522Z" fill="#091D40"/>
<path fill-rule="evenodd" clip-rule="evenodd" d="M98.8874 27.4522H94.0918L95.1829 23.3872H99.981L98.8874 27.4522Z" fill="#091D40"/>
<path fill-rule="evenodd" clip-rule="evenodd" d="M104.771 27.4522H99.9756L101.066 23.3872H105.863L104.771 27.4522Z" fill="#091D40"/>
<path fill-rule="evenodd" clip-rule="evenodd" d="M110.631 27.4522H105.835L106.925 23.3872H111.723L110.631 27.4522Z" fill="#091D40"/>
<path fill-rule="evenodd" clip-rule="evenodd" d="M116.514 27.4522H111.719L112.81 23.3872H117.606L116.514 27.4522Z" fill="#091D40"/>
<path fill-rule="evenodd" clip-rule="evenodd" d="M122.399 27.4522H117.603L118.694 23.3872H123.492L122.399 27.4522Z" fill="#FBD528"/>
<path fill-rule="evenodd" clip-rule="evenodd" d="M128.282 27.4522H123.486L124.578 23.3872H129.374L128.282 27.4522Z" fill="#FBD528"/>
<path fill-rule="evenodd" clip-rule="evenodd" d="M134.166 27.4522H129.37L130.461 23.3872H135.257L134.166 27.4522Z" fill="#FBD528"/>
<path fill-rule="evenodd" clip-rule="evenodd" d="M140.051 27.4522H135.254L136.345 23.3872H141.142L140.051 27.4522Z" fill="#FBD528"/>
<path fill-rule="evenodd" clip-rule="evenodd" d="M145.91 27.4522H141.113L142.203 23.3872H147.001L145.91 27.4522Z" fill="#FBD528"/>
<path fill-rule="evenodd" clip-rule="evenodd" d="M151.795 27.4522H146.997L148.088 23.3872H152.885L151.795 27.4522Z" fill="#FBD528"/>
<path fill-rule="evenodd" clip-rule="evenodd" d="M157.677 27.4522H152.881L153.973 23.3872H158.769L157.677 27.4522Z" fill="#FBD528"/>
<path fill-rule="evenodd" clip-rule="evenodd" d="M163.562 27.4522H158.765L159.856 23.3872H164.654L163.562 27.4522Z" fill="#FBD528"/>
<path fill-rule="evenodd" clip-rule="evenodd" d="M169.445 27.4522H164.648L165.739 23.3872H170.536L169.445 27.4522Z" fill="#FBD528"/>
<path fill-rule="evenodd" clip-rule="evenodd" d="M175.33 27.4522H170.532L171.623 23.3872H176.419L175.33 27.4522Z" fill="#FBD528"/>
<path fill-rule="evenodd" clip-rule="evenodd" d="M181.212 27.4522H176.416L177.506 23.3872H182.302L181.212 27.4522Z" fill="#FBD528"/>
<path fill-rule="evenodd" clip-rule="evenodd" d="M187.073 27.4522H182.275L183.367 23.3872H188.164L187.073 27.4522Z" fill="#FBD528"/>
<path fill-rule="evenodd" clip-rule="evenodd" d="M197.435 2.10099H196.748V3.0315H197.435C197.667 3.0315 197.923 2.85426 197.923 2.57732C197.923 2.27823 197.667 2.10099 197.435 2.10099ZM197.878 4.45044L197.18 3.38599H196.748V4.45044H196.338V1.75708H197.435C197.889 1.75708 198.343 2.07883 198.343 2.57732C198.343 3.17551 197.812 3.37491 197.656 3.37491L198.376 4.45044H197.878ZM197.246 1.13724C196.161 1.13724 195.286 2.00129 195.286 3.09797C195.286 4.17249 196.161 5.0592 197.246 5.0592C198.333 5.0592 199.208 4.17249 199.208 3.09797C199.208 2.00129 198.333 1.13724 197.246 1.13724ZM197.246 5.44742C195.95 5.44742 194.897 4.39455 194.897 3.09797C194.897 1.79082 195.95 0.749023 197.246 0.749023C198.554 0.749023 199.595 1.79082 199.595 3.09797C199.595 4.39455 198.554 5.44742 197.246 5.44742Z" fill="#FBD528"/>
</svg>
