<svg width="120" height="22" viewBox="0 0 120 22" fill="none" xmlns="http://www.w3.org/2000/svg">
<path d="M14.9415 8.42989L19.3777 3.98376C17.3193 1.45834 14.2316 0 10.9665 0C4.89768 0 0 4.90856 0 10.9909C0 17.0377 4.89768 21.9818 10.9665 21.9818C14.2316 21.9818 17.3193 20.5234 19.4132 17.9981L12.4216 10.9909L10.9665 12.4492L16.503 17.9981L16.3965 18.1048C14.835 19.3141 12.954 19.9544 11.002 19.9544C6.03337 19.9188 2.05845 15.8995 2.05845 10.9909C2.05845 6.08235 6.03337 2.06302 10.9665 2.06302C12.954 2.06302 14.7995 2.70326 16.361 3.91262L16.4675 4.01933L14.977 5.51324L14.906 5.4421C13.7348 4.624 12.3861 4.19717 10.9665 4.19717C7.20455 4.19717 4.15237 7.25613 4.15237 11.0265C4.15237 14.7968 7.20455 17.7847 10.9665 17.7847C11.7473 17.7847 12.5281 17.6424 13.2379 17.3933L11.5344 15.6861C11.3569 15.7216 11.144 15.7216 10.9665 15.7216C8.34022 15.7216 6.21082 13.5875 6.21082 10.9553C6.21082 8.32319 8.34022 6.18905 10.9665 6.18905C11.8538 6.18905 12.7056 6.43804 13.4863 6.90044C14.0542 7.32727 14.5866 7.82525 14.9415 8.42989Z" fill="#00FD90"/>
<path d="M26.4388 10.5343H27.2759V12.6987C27.2759 13.5377 26.9075 13.8397 26.3217 13.8397C25.7357 13.8397 25.3674 13.5377 25.3674 12.6987V6.35653C25.3674 5.51762 25.7357 5.19883 26.3217 5.19883C26.9075 5.19883 27.2759 5.51762 27.2759 6.35653V7.6149H29.017V6.47398C29.017 4.59481 28.0794 3.521 26.2714 3.521C24.4633 3.521 23.5259 4.59481 23.5259 6.47398V12.5813C23.5259 14.4604 24.4633 15.5342 26.2714 15.5342C28.0794 15.5342 29.017 14.4604 29.017 12.5813V8.85651H26.4388V10.5343ZM35.9252 15.4C35.741 14.9638 35.7242 14.5443 35.7242 13.9739V12.1619C35.7242 10.937 35.4229 10.0477 34.5021 9.66186C35.3225 9.27598 35.7075 8.48735 35.7075 7.27934V6.35653C35.7075 4.54447 34.8872 3.65523 32.9787 3.65523H30.1997V15.4H32.0412V10.6182H32.6773C33.5144 10.6182 33.8828 11.0209 33.8828 12.1115V13.9571C33.8828 14.9135 33.9497 15.0981 34.0501 15.4H35.9252ZM32.9285 5.33306C33.5814 5.33306 33.866 5.70218 33.866 6.5411V7.6988C33.866 8.63842 33.4475 8.9404 32.7611 8.9404H32.0412V5.33306H32.9285ZM38.7769 5.33306H41.9577V3.65523H36.9354V15.4H41.9577V13.7222H38.7769V10.2826H41.3048V8.60483H38.7769V5.33306ZM44.9404 5.33306H48.1212V3.65523H43.0988V15.4H48.1212V13.7222H44.9404V10.2826H47.4683V8.60483H44.9404V5.33306ZM53.1965 15.4H55.0882V3.65523H53.4476V10.6854L51.5558 3.65523H49.2455V15.4H50.9029V6.89344L53.1965 15.4ZM62.6055 11.0209V12.6987C62.6055 13.5377 62.2372 13.8397 61.6513 13.8397C61.0653 13.8397 60.697 13.5377 60.697 12.6987V6.35653C60.697 5.51762 61.0653 5.19883 61.6513 5.19883C62.2372 5.19883 62.6055 5.51762 62.6055 6.35653V7.6149H64.3466V6.47398C64.3466 4.59481 63.409 3.521 61.601 3.521C59.7929 3.521 58.8555 4.59481 58.8555 6.47398V12.5813C58.8555 14.4604 59.7929 15.5342 61.601 15.5342C63.409 15.5342 64.3466 14.4604 64.3466 12.5813V11.0209H62.6055ZM67.3054 10.3665H69.3981V15.4H71.2731V3.65523H69.3981V8.68872H67.3054V3.65523H65.4639V15.4H67.3054V10.3665ZM76.6934 3.65523H73.9978L72.1228 15.4H73.8134L74.1317 13.2692H76.3919L76.7095 15.4H78.568L76.6934 3.65523ZM75.2534 5.73574L76.141 11.6752H74.3659L75.2534 5.73574ZM81.9705 3.65523H79.4088V15.4H81.0163V7.09478L82.389 15.4H84.1298L85.4022 6.97733V15.4H87.1437V3.65523H84.5819L83.3263 11.9941L81.9705 3.65523ZM90.3244 5.33306H93.5051V3.65523H88.4827V15.4H93.5051V13.7222H90.3244V10.2826H92.8524V8.60483H90.3244V5.33306ZM94.6466 15.4H99.5183V13.7222H96.4875V3.65523H94.6466V15.4ZM102.161 5.33306H105.342V3.65523H100.319V15.4H105.342V13.7222H102.161V10.2826H104.689V8.60483H102.161V5.33306ZM108.174 6.35653C108.174 5.51762 108.542 5.19883 109.128 5.19883C109.714 5.19883 110.082 5.51762 110.082 6.35653V12.6987C110.082 13.5377 109.714 13.8564 109.128 13.8564C108.542 13.8564 108.174 13.5377 108.174 12.6987V6.35653ZM106.332 12.5813C106.332 14.4604 107.32 15.5342 109.128 15.5342C110.936 15.5342 111.924 14.4604 111.924 12.5813V6.47398C111.924 4.59481 110.936 3.521 109.128 3.521C107.32 3.521 106.332 4.59481 106.332 6.47398V12.5813ZM117.054 15.4H118.947V3.65523H117.306V10.6854L115.414 3.65523H113.104V15.4H114.761V6.89344L117.054 15.4Z" fill="#1B1F22"/>
</svg>
