<svg width="1104" height="643" viewBox="0 0 1104 643" fill="none" xmlns="http://www.w3.org/2000/svg">
<path d="M0 0H1103.9V637.943C1103.9 640.638 1101.71 642.823 1099.02 642.823H4.87915C2.18449 642.823 0 640.638 0 637.943V0Z" fill="white"/>
<path d="M42.9937 94.322L40.2471 97.4067C41.2894 99.0688 41.9092 100.914 42.1064 102.942H40.2894C40.1203 101.506 39.6837 100.139 38.9794 98.8434L35.3454 102.942L31.7537 99.3082L26.345 104.717L24.9928 103.365L31.7537 96.6038L35.3454 100.238L37.923 97.2799C36.261 95.3362 34.2327 94.3643 31.8382 94.3643C29.7818 94.3643 27.9225 95.0967 26.2605 96.5616L24.9928 95.2939C27.0211 93.491 29.3029 92.5896 31.8382 92.5896C34.7116 92.5896 37.1483 93.7023 39.1484 95.9278L41.726 93.0544L42.9937 94.322Z" fill="#363E8B"/>
<rect opacity="0.7" x="52.4512" y="96.3624" width="70.7471" height="6.09889" rx="3.04944" fill="#363E8B"/>
<path d="M1070.76 34.8401C1071.12 34.4739 1071.55 34.2907 1072.02 34.2907C1072.5 34.2907 1072.93 34.4739 1073.29 34.8401C1073.66 35.2063 1073.84 35.6288 1073.84 36.1077C1073.84 36.5866 1073.66 37.0092 1073.29 37.3754C1072.93 37.7416 1072.5 37.9247 1072.02 37.9247C1071.55 37.9247 1071.12 37.7416 1070.76 37.3754C1070.39 37.0092 1070.21 36.5866 1070.21 36.1077C1070.21 35.6288 1070.39 35.2063 1070.76 34.8401ZM1070.76 29.4313C1071.12 29.0651 1071.55 28.882 1072.02 28.882C1072.5 28.882 1072.93 29.0651 1073.29 29.4313C1073.66 29.7976 1073.84 30.2201 1073.84 30.699C1073.84 31.1779 1073.66 31.6005 1073.29 31.9667C1072.93 32.3329 1072.5 32.516 1072.02 32.516C1071.55 32.516 1071.12 32.3329 1070.76 31.9667C1070.39 31.6005 1070.21 31.1779 1070.21 30.699C1070.21 30.2201 1070.39 29.7976 1070.76 29.4313ZM1073.29 26.5579C1072.93 26.9242 1072.5 27.1073 1072.02 27.1073C1071.55 27.1073 1071.12 26.9242 1070.76 26.5579C1070.39 26.1917 1070.21 25.7692 1070.21 25.2903C1070.21 24.8114 1070.39 24.3888 1070.76 24.0226C1071.12 23.6564 1071.55 23.4733 1072.02 23.4733C1072.5 23.4733 1072.93 23.6564 1073.29 24.0226C1073.66 24.3888 1073.84 24.8114 1073.84 25.2903C1073.84 25.7692 1073.66 26.1917 1073.29 26.5579Z" fill="#8D99A5"/>
<rect x="974.602" y="25.6154" width="70.7471" height="7.31866" rx="3.65933" fill="#E6E9EB"/>
<rect x="251.273" y="25.6154" width="70.7471" height="7.31866" rx="3.65933" fill="#E6E9EB"/>
<rect x="23.1758" y="19.5165" width="20.7362" height="20.7362" rx="10.3681" fill="#363E8B"/>
<rect x="52.4512" y="25.6154" width="45.1318" height="8.53844" rx="4.26922" fill="#363E8B"/>
<path d="M231.363 31.3328C232.152 32.1216 233.109 32.516 234.236 32.516C235.363 32.516 236.321 32.1216 237.11 31.3328C237.898 30.5441 238.293 29.5863 238.293 28.4595C238.293 27.3326 237.898 26.3748 237.11 25.5861C236.321 24.7973 235.363 24.4029 234.236 24.4029C233.109 24.4029 232.152 24.7973 231.363 25.5861C230.574 26.3748 230.18 27.3326 230.18 28.4595C230.18 29.5863 230.574 30.5441 231.363 31.3328ZM239.645 32.516L244.124 36.9951L242.772 38.3473L238.293 33.8682V33.1498L238.039 32.8963C236.969 33.8259 235.701 34.2907 234.236 34.2907C232.602 34.2907 231.208 33.7273 230.053 32.6005C228.926 31.4737 228.363 30.0933 228.363 28.4595C228.363 26.8256 228.926 25.4452 230.053 24.3184C231.208 23.1634 232.602 22.5859 234.236 22.5859C235.87 22.5859 237.25 23.1634 238.377 24.3184C239.504 25.4452 240.067 26.8256 240.067 28.4595C240.067 29.051 239.927 29.7271 239.645 30.4877C239.363 31.2202 239.039 31.8117 238.673 32.2625L238.927 32.516H239.645Z" fill="#363E8B"/>
<rect x="226.879" y="225.659" width="121.978" height="19.5164" rx="9.75822" fill="#E6E9EB"/>
<path d="M906.33 243.137V233.25H893.738V243.137H906.33ZM903.626 226.911H905.443V228.728H906.33C906.809 228.728 907.232 228.911 907.598 229.278C907.964 229.644 908.147 230.066 908.147 230.545V243.137C908.147 243.616 907.964 244.039 907.598 244.405C907.232 244.771 906.809 244.954 906.33 244.954H893.738C893.231 244.954 892.794 244.785 892.428 244.447C892.09 244.081 891.921 243.645 891.921 243.137V230.545C891.921 230.066 892.09 229.644 892.428 229.278C892.794 228.911 893.231 228.728 893.738 228.728H894.626V226.911H896.443V228.728H903.626V226.911ZM904.556 236.841V241.363H900.034V236.841H904.556Z" fill="#B4C0CD"/>
<rect x="917.271" y="231.758" width="70.7471" height="7.31866" rx="3.65933" fill="#E6E9EB"/>
<path d="M1013.43 235.574C1013.79 235.207 1014.22 235.024 1014.69 235.024C1015.17 235.024 1015.6 235.207 1015.96 235.574C1016.33 235.94 1016.51 236.362 1016.51 236.841C1016.51 237.32 1016.33 237.743 1015.96 238.109C1015.6 238.475 1015.17 238.658 1014.69 238.658C1014.22 238.658 1013.79 238.475 1013.43 238.109C1013.06 237.743 1012.88 237.32 1012.88 236.841C1012.88 236.362 1013.06 235.94 1013.43 235.574ZM1018.84 235.574C1019.2 235.207 1019.62 235.024 1020.1 235.024C1020.58 235.024 1021 235.207 1021.37 235.574C1021.74 235.94 1021.92 236.362 1021.92 236.841C1021.92 237.32 1021.74 237.743 1021.37 238.109C1021 238.475 1020.58 238.658 1020.1 238.658C1019.62 238.658 1019.2 238.475 1018.84 238.109C1018.47 237.743 1018.29 237.32 1018.29 236.841C1018.29 236.362 1018.47 235.94 1018.84 235.574ZM1008.02 235.574C1008.38 235.207 1008.81 235.024 1009.29 235.024C1009.76 235.024 1010.19 235.207 1010.55 235.574C1010.92 235.94 1011.1 236.362 1011.1 236.841C1011.1 237.32 1010.92 237.743 1010.55 238.109C1010.19 238.475 1009.76 238.658 1009.29 238.658C1008.81 238.658 1008.38 238.475 1008.02 238.109C1007.65 237.743 1007.47 237.32 1007.47 236.841C1007.47 236.362 1007.65 235.94 1008.02 235.574Z" fill="#8D99A5"/>
<rect x="707.471" y="231.758" width="51.2306" height="7.31866" rx="3.65933" fill="#E6E9EB"/>
<rect x="691.613" y="230.538" width="9.75822" height="9.75822" rx="2.43955" fill="#6515DD"/>
<rect x="806.273" y="231.758" width="51.2306" height="7.31866" rx="3.65933" fill="#E6E9EB"/>
<rect x="791.635" y="230.538" width="9.75822" height="9.75822" rx="2.43955" fill="#84D5FF"/>
<path d="M228.455 94.7448V115.802H230.264V98.8062H230.429L237.534 115.802H239.282L246.386 98.8062H246.551V115.802H248.36V94.7448H246.14L238.5 113.088H238.315L230.676 94.7448H228.455ZM254.853 121.714C256.828 121.714 258.277 120.583 259.12 118.3L265.814 100.04L263.819 100.009L259.131 113.386H258.987L254.298 100.009H252.314L258.123 115.956L257.547 117.56C256.684 119.935 255.439 120.357 253.578 119.761L253.085 121.385C253.455 121.55 254.134 121.714 254.853 121.714ZM277.908 115.802H279.687V112.872H279.913C280.55 114.321 281.887 116.131 284.766 116.131C288.642 116.131 291.264 112.851 291.264 107.947C291.264 103.083 288.632 99.7932 284.735 99.7932C281.846 99.7932 280.54 101.603 279.913 103.022H279.748V94.7448H277.908V115.802ZM279.717 107.916C279.717 104.132 281.455 101.459 284.54 101.459C287.706 101.459 289.423 104.276 289.423 107.916C289.423 111.597 287.686 114.455 284.54 114.455C281.476 114.455 279.717 111.73 279.717 107.916ZM301.669 116.131C304.836 116.131 306.964 114.414 307.684 112.43L305.946 111.864C305.34 113.283 303.911 114.455 301.669 114.455C298.441 114.455 296.395 112.101 296.312 108.451H308.075V107.546C308.075 102.271 304.815 99.7932 301.392 99.7932C297.299 99.7932 294.472 103.217 294.472 107.998C294.472 112.789 297.248 116.131 301.669 116.131ZM296.323 106.836C296.518 103.896 298.502 101.459 301.392 101.459C304.219 101.459 306.203 103.793 306.203 106.836H296.323ZM316.519 116.162C319.151 116.162 320.755 114.702 321.413 113.304H321.526V115.802H323.356V105.078C323.356 100.842 320.169 99.7932 317.752 99.7932C315.336 99.7932 312.848 100.749 311.779 103.33L313.516 103.957C314.092 102.6 315.521 101.438 317.804 101.438C320.2 101.438 321.526 102.754 321.526 104.914V105.284C321.526 106.476 320.045 106.497 317.393 106.826C313.825 107.268 311.326 108.265 311.326 111.391C311.326 114.435 313.65 116.162 316.519 116.162ZM316.765 114.486C314.699 114.486 313.156 113.386 313.156 111.473C313.156 109.561 314.719 108.759 317.393 108.43C318.688 108.276 320.991 107.988 321.526 107.463V109.746C321.526 112.337 319.685 114.486 316.765 114.486ZM338.26 109.767C338.26 112.666 336.08 114.229 333.941 114.229C331.659 114.229 330.055 112.594 330.055 110.126V100.009H328.224V110.24C328.224 113.982 330.384 116.008 333.417 116.008C335.73 116.008 337.375 114.805 338.116 113.18H338.26V115.802H340.09V100.009H338.26V109.767ZM351.156 100.009H347.814V96.2254H345.973V100.009H343.619V101.603H345.973V112.111C345.973 114.692 348.009 116.038 350.035 116.038C350.796 116.038 351.31 115.895 351.659 115.761L351.269 114.106C351.012 114.177 350.683 114.249 350.199 114.249C348.955 114.249 347.814 113.663 347.814 111.679V101.603H351.156V100.009ZM355.332 115.802H357.173V100.009H355.332V115.802ZM356.268 97.2947C357.019 97.2947 357.646 96.6984 357.646 95.9787C357.646 95.2589 357.019 94.6626 356.268 94.6626C355.518 94.6626 354.901 95.2589 354.901 95.9787C354.901 96.6984 355.518 97.2947 356.268 97.2947ZM368.511 100.009H365.015V98.1687C365.015 96.5133 365.91 95.5982 367.504 95.5982C368.11 95.5982 368.48 95.7319 368.758 95.8244L369.293 94.2205C368.922 94.0662 368.306 93.8709 367.339 93.8709C365.19 93.8709 363.175 95.2384 363.175 97.7883V100.009H360.748V101.603H363.175V115.802H365.015V101.603H368.511V100.009ZM382.199 109.767C382.199 112.666 380.019 114.229 377.881 114.229C375.598 114.229 373.994 112.594 373.994 110.126V100.009H372.164V110.24C372.164 113.982 374.323 116.008 377.356 116.008C379.67 116.008 381.315 114.805 382.055 113.18H382.199V115.802H384.029V100.009H382.199V109.767ZM390.705 94.7448H388.874V115.802H390.705V94.7448Z" fill="black"/>
<path d="M232.167 147.516H235.93L240.156 132.741H240.32L244.536 147.516H248.299L254.242 126.459H250.139L246.345 141.943H246.16L242.099 126.459H238.367L234.315 141.933H234.12L230.326 126.459H226.224L232.167 147.516ZM262.102 147.825C265.783 147.825 268.312 146.025 268.97 143.28L265.495 142.889C264.991 144.226 263.757 144.925 262.154 144.925C259.748 144.925 258.154 143.342 258.123 140.638H269.125V139.496C269.125 133.955 265.793 131.518 261.907 131.518C257.383 131.518 254.432 134.839 254.432 139.712C254.432 144.668 257.342 147.825 262.102 147.825ZM258.133 138.129C258.246 136.114 259.737 134.417 261.958 134.417C264.097 134.417 265.536 135.98 265.557 138.129H258.133ZM272.438 147.516H276.098V145.028H276.314C276.9 146.18 278.124 147.794 280.838 147.794C284.56 147.794 287.347 144.843 287.347 139.64C287.347 134.376 284.478 131.518 280.828 131.518C278.041 131.518 276.88 133.194 276.314 134.335H276.16V126.459H272.438V147.516ZM276.088 139.62C276.088 136.556 277.404 134.571 279.8 134.571C282.278 134.571 283.553 136.679 283.553 139.62C283.553 142.581 282.257 144.74 279.8 144.74C277.425 144.74 276.088 142.684 276.088 139.62ZM302.237 147.835C304.715 147.835 306.196 146.673 306.874 145.347H306.998V147.516H310.576V136.947C310.576 132.772 307.172 131.518 304.16 131.518C300.839 131.518 298.289 132.998 297.466 135.877L300.942 136.371C301.312 135.291 302.361 134.366 304.18 134.366C305.908 134.366 306.854 135.25 306.854 136.803V136.864C306.854 137.934 305.733 137.985 302.947 138.283C299.883 138.612 296.952 139.527 296.952 143.085C296.952 146.19 299.225 147.835 302.237 147.835ZM303.204 145.1C301.651 145.1 300.541 144.391 300.541 143.023C300.541 141.594 301.785 140.998 303.45 140.761C304.427 140.627 306.381 140.381 306.864 139.99V141.851C306.864 143.609 305.445 145.1 303.204 145.1ZM314.318 153.439H318.04V145.028H318.195C318.781 146.18 320.004 147.794 322.719 147.794C326.441 147.794 329.227 144.843 329.227 139.64C329.227 134.376 326.358 131.518 322.708 131.518C319.922 131.518 318.76 133.194 318.195 134.335H317.979V131.723H314.318V153.439ZM317.968 139.62C317.968 136.556 319.284 134.571 321.68 134.571C324.158 134.571 325.433 136.679 325.433 139.62C325.433 142.581 324.137 144.74 321.68 144.74C319.305 144.74 317.968 142.684 317.968 139.62ZM332.414 153.439H336.136V145.028H336.291C336.877 146.18 338.1 147.794 340.815 147.794C344.537 147.794 347.323 144.843 347.323 139.64C347.323 134.376 344.454 131.518 340.804 131.518C338.018 131.518 336.856 133.194 336.291 134.335H336.075V131.723H332.414V153.439ZM336.064 139.62C336.064 136.556 337.38 134.571 339.776 134.571C342.254 134.571 343.529 136.679 343.529 139.62C343.529 142.581 342.233 144.74 339.776 144.74C337.401 144.74 336.064 142.684 336.064 139.62Z" fill="black"/>
<g filter="url(#filter0_ddd)">
<rect x="985.58" y="100.022" width="47.5713" height="48.7911" rx="12.1978" fill="#363E8B"/>
</g>
<path d="M1019.46 126.029H1012.22V133.268H1009.85V126.029H1002.61V123.654H1009.85V116.416H1012.22V123.654H1019.46V126.029Z" fill="white"/>
<line x1="225.658" y1="187.236" x2="1033.15" y2="187.236" stroke="#F0F0F0" stroke-width="1.21978"/>
<line x1="-5.33182e-08" y1="55.4999" x2="1102.68" y2="55.4998" stroke="#F0F0F0" stroke-width="1.21978"/>
<g clip-path="url(#clip0)">
<path opacity="0.6" d="M27.241 124.417H41.8783V134.176H27.241V124.417ZM34.5597 126.857C35.2067 126.857 35.8272 127.114 36.2847 127.571C36.7422 128.029 36.9992 128.649 36.9992 129.296C36.9992 129.943 36.7422 130.564 36.2847 131.021C35.8272 131.479 35.2067 131.736 34.5597 131.736C33.9127 131.736 33.2922 131.479 32.8347 131.021C32.3772 130.564 32.1201 129.943 32.1201 129.296C32.1201 128.649 32.3772 128.029 32.8347 127.571C33.2922 127.114 33.9127 126.857 34.5597 126.857V126.857ZM30.4938 126.044C30.4938 126.475 30.3224 126.889 30.0174 127.194C29.7124 127.499 29.2987 127.67 28.8674 127.67V130.923C29.2987 130.923 29.7124 131.094 30.0174 131.399C30.3224 131.704 30.4938 132.118 30.4938 132.549H38.6256C38.6256 132.118 38.797 131.704 39.102 131.399C39.407 131.094 39.8206 130.923 40.252 130.923V127.67C39.8206 127.67 39.407 127.499 39.102 127.194C38.797 126.889 38.6256 126.475 38.6256 126.044H30.4938ZM23.9883 127.67H25.6147V135.802H38.6256V137.428H23.9883V127.67Z" fill="#8D99A5"/>
</g>
<path opacity="0.6" d="M38.8057 163.201C39.5945 163.201 40.4537 163.314 41.3833 163.539C42.3129 163.765 43.1721 164.131 43.9609 164.638C44.7497 165.145 45.1441 165.723 45.1441 166.371V168.61H39.7353V166.371C39.7353 165.131 39.1437 164.089 37.9606 163.244C38.1578 163.215 38.4395 163.201 38.8057 163.201ZM29.0446 163.539C29.9742 163.314 30.8334 163.201 31.6222 163.201C32.411 163.201 33.2702 163.314 34.1998 163.539C35.1294 163.765 35.9746 164.131 36.7352 164.638C37.5239 165.145 37.9183 165.723 37.9183 166.371V168.61H25.2839V166.371C25.2839 165.723 25.6782 165.145 26.467 164.638C27.2558 164.131 28.115 163.765 29.0446 163.539ZM33.4815 160.624C32.9744 161.159 32.3546 161.427 31.6222 161.427C30.8898 161.427 30.2559 161.159 29.7207 160.624C29.1855 160.089 28.9178 159.455 28.9178 158.722C28.9178 157.99 29.1855 157.356 29.7207 156.821C30.2559 156.286 30.8898 156.018 31.6222 156.018C32.3546 156.018 32.9744 156.286 33.4815 156.821C34.0167 157.356 34.2843 157.99 34.2843 158.722C34.2843 159.455 34.0167 160.089 33.4815 160.624ZM40.7072 160.624C40.172 161.159 39.5381 161.427 38.8057 161.427C38.0733 161.427 37.4394 161.159 36.9042 160.624C36.3689 160.089 36.1013 159.455 36.1013 158.722C36.1013 157.99 36.3689 157.356 36.9042 156.821C37.4394 156.286 38.0733 156.018 38.8057 156.018C39.5381 156.018 40.172 156.286 40.7072 156.821C41.2424 157.356 41.5101 157.99 41.5101 158.722C41.5101 159.455 41.2424 160.089 40.7072 160.624Z" fill="#8D99A5"/>
<path opacity="0.6" d="M39.7353 189.507C40.9748 189.507 42.0312 189.958 42.9045 190.859C43.7778 191.732 44.2144 192.789 44.2144 194.028C44.2144 195.268 43.7778 196.338 42.9045 197.24C42.0312 198.113 40.9748 198.55 39.7353 198.55H36.1013V196.817H39.7353C40.4959 196.817 41.1438 196.549 41.6791 196.014C42.2425 195.451 42.5242 194.789 42.5242 194.028C42.5242 193.268 42.2425 192.62 41.6791 192.084C41.1438 191.521 40.4959 191.239 39.7353 191.239H36.1013V189.507H39.7353ZM31.6222 194.916V193.141H38.8057V194.916H31.6222ZM28.7066 192.084C28.1713 192.62 27.9037 193.268 27.9037 194.028C27.9037 194.789 28.1713 195.451 28.7066 196.014C29.27 196.549 29.932 196.817 30.6926 196.817H34.3266V198.55H30.6926C29.4531 198.55 28.3967 198.113 27.5234 197.24C26.6501 196.338 26.2135 195.268 26.2135 194.028C26.2135 192.789 26.6501 191.732 27.5234 190.859C28.3967 189.958 29.4531 189.507 30.6926 189.507H34.3266V191.239H30.6926C29.932 191.239 29.27 191.521 28.7066 192.084Z" fill="#8D99A5"/>
<rect x="52.4512" y="126.857" width="62.2086" height="7.31866" rx="3.65933" fill="#E6E9EB"/>
<rect x="52.4512" y="158.571" width="56.1097" height="7.31866" rx="3.65933" fill="#E6E9EB"/>
<rect x="52.4512" y="190.285" width="65.868" height="7.31866" rx="3.65933" fill="#E6E9EB"/>
<rect x="226.879" y="297.626" width="243.955" height="280.549" rx="9.75822" fill="#E6E9EB"/>
<rect x="508.646" y="353.735" width="243.955" height="224.439" rx="9.75822" fill="#E6E9EB"/>
<rect x="790.416" y="323.241" width="243.955" height="253.714" rx="9.75822" fill="#E6E9EB"/>
<g filter="url(#filter1_d)">
<path d="M713.26 194.597C703.509 202.738 702.203 217.242 710.344 226.993C718.485 236.744 732.989 238.05 742.74 229.909L713.26 194.597ZM936.794 124.512L953.5 140.32C957.758 135.82 960.02 129.793 959.776 123.603C959.531 117.413 956.799 111.584 952.199 107.434L936.794 124.512ZM911.623 70.8308C902.191 62.3224 887.647 63.0711 879.139 72.5031C870.631 81.935 871.379 96.4786 880.811 104.987L911.623 70.8308ZM885.336 145.431C876.605 154.658 877.008 169.215 886.235 177.946C895.462 186.676 910.019 186.274 918.749 177.047L885.336 145.431ZM742.74 229.909C801.198 181.105 876.213 149.923 937.701 147.494L935.886 101.53C862.35 104.434 777.91 140.624 713.26 194.597L742.74 229.909ZM952.199 107.434L911.623 70.8308L880.811 104.987L921.388 141.59L952.199 107.434ZM920.087 108.704L885.336 145.431L918.749 177.047L953.5 140.32L920.087 108.704Z" fill="white"/>
</g>
<path d="M721.591 204.577C717.352 208.116 716.784 214.422 720.324 218.662C723.863 222.902 730.169 223.469 734.409 219.93L721.591 204.577ZM936.794 124.512L944.057 131.385C945.909 129.429 946.892 126.808 946.786 124.117C946.679 121.426 945.492 118.891 943.492 117.087L936.794 124.512ZM902.915 80.4836C898.814 76.7843 892.491 77.1099 888.792 81.2107C885.093 85.3116 885.418 91.6348 889.519 95.3341L902.915 80.4836ZM894.779 154.366C890.983 158.378 891.158 164.707 895.17 168.503C899.181 172.299 905.51 172.124 909.306 168.112L894.779 154.366ZM734.409 219.93C794.616 169.665 872.295 137.067 937.188 134.504L936.399 114.52C866.268 117.29 784.491 152.064 721.591 204.577L734.409 219.93ZM943.492 117.087L902.915 80.4836L889.519 95.3341L930.095 131.937L943.492 117.087ZM929.53 117.639L894.779 154.366L909.306 168.112L944.057 131.385L929.53 117.639Z" fill="#FE3636"/>
<g filter="url(#filter2_d)">
<mask id="path-36-outside-1" maskUnits="userSpaceOnUse" x="265" y="251" width="637" height="130" fill="black">
<rect fill="white" x="265" y="251" width="637" height="130"/>
<path d="M293.987 327.462C293.279 332.632 292.363 340.415 291.237 350.811C291.125 354.366 291.026 357.903 290.94 361.423C290.272 365.962 288.246 368.461 284.863 368.92C282.741 369.209 280.966 368.713 279.54 367.435C278.327 366.347 277.606 364.957 277.376 363.265C276.7 358.283 276.936 352.064 278.085 344.609C279.795 333.445 280.694 327.262 280.781 326.06C281.03 321.202 281.294 316.342 281.574 311.48C282.073 304.772 282.975 300.233 284.282 297.863C285.616 295.457 287.513 294.088 289.974 293.754C292.773 293.374 295.025 294.509 296.732 297.159C298.326 299.667 300.392 304.963 302.93 313.044C305.373 320.888 308.562 329.257 312.494 338.151C314.76 328.541 316.659 318.071 318.191 306.743L319.333 295.781C320.397 291.157 322.667 288.61 326.142 288.138C329.495 287.682 332.333 289.897 334.656 294.781C335.612 296.75 336.857 300.497 338.39 306.021C341.954 318.881 345.723 329.802 349.699 338.785C353.727 347.917 355.798 352.898 355.91 353.729C356.157 355.543 355.641 357.164 354.362 358.591C353.159 359.882 351.712 360.642 350.02 360.872C346.668 361.327 343.851 359.266 341.569 354.689L337.47 343.875C335.241 338.54 332.562 330.806 329.433 320.675C328.608 324.984 327.196 331.77 325.196 341.031L323.58 349.896C322.898 353.403 322.087 356.317 321.149 358.637C319.908 361.719 317.826 363.458 314.904 363.855C312.013 364.247 309.567 362.841 307.565 359.636L303.816 351.405C300.348 343.857 297.072 335.876 293.987 327.462Z"/>
<path d="M407.181 352.706C405.765 352.887 403.32 351.635 399.847 348.951C397.188 350.668 394.825 352.003 392.756 352.957C390.692 353.941 388.905 354.529 387.397 354.723C379.977 355.673 374.15 354.4 369.916 350.906C365.713 347.407 363.105 341.702 362.092 333.789C361.142 326.369 363.07 319.676 367.876 313.71C372.678 307.712 378.897 304.225 386.532 303.247C389.457 302.873 392.95 303.271 397.011 304.44C401.917 305.846 404.539 307.873 404.878 310.521C405.02 311.629 404.79 312.644 404.188 313.566C404.038 314.837 403.991 316.424 404.046 318.325C404.129 320.192 404.33 322.373 404.649 324.866C405.402 330.747 406.36 334.927 407.522 337.407C407.65 337.672 408.563 339.182 410.262 341.938C411.801 344.432 412.595 345.863 412.642 346.233C412.851 347.865 412.393 349.3 411.269 350.539C410.176 351.775 408.813 352.497 407.181 352.706ZM391.672 322.491C391.545 321.506 391.463 320.375 391.425 319.096C391.413 317.784 391.445 316.324 391.521 314.719C390.866 314.49 390.284 314.345 389.776 314.285C389.294 314.19 388.884 314.165 388.546 314.208C384.359 314.744 380.906 316.86 378.187 320.557C375.465 324.222 374.379 328.21 374.931 332.521C375.46 336.646 376.597 339.661 378.342 341.565C380.084 343.439 382.433 344.187 385.389 343.808C387.298 343.564 389.059 343.025 390.674 342.193C392.315 341.325 393.811 340.179 395.162 338.755C393.3 331.545 392.137 326.124 391.672 322.491Z"/>
<path d="M456.005 345.562C453.571 345.856 451.58 344.909 450.033 342.72C448.184 340.099 445.518 337.061 442.036 333.605C436.632 328.225 433.769 325.367 433.447 325.031C431.202 327.147 429.336 328.78 427.849 329.929C428.06 334.25 428.402 338.366 428.876 342.28C429.092 344.067 428.67 345.619 427.61 346.935C426.55 348.252 425.096 349.022 423.247 349.246C418.902 349.772 416.416 347.446 415.79 342.269C415.495 339.835 415.224 336.178 414.978 331.3C414.758 326.386 414.501 322.712 414.206 320.278C413.665 315.81 413.11 310.703 412.539 304.956C411.996 299.175 411.457 294.082 410.924 289.675C410.763 288.35 410.498 286.804 410.128 285.035C409.784 283.232 409.532 281.668 409.372 280.343C409.156 278.556 409.579 277.019 410.643 275.734C411.703 274.417 413.158 273.647 415.006 273.423C416.855 273.199 418.451 273.6 419.795 274.626C421.135 275.62 421.913 277.011 422.129 278.799C422.293 280.154 422.564 281.747 422.942 283.578C423.32 285.408 423.591 287.001 423.755 288.357C424.199 292.023 424.632 296.379 425.056 301.425C425.453 306.254 425.894 310.546 426.38 314.302C430.179 310.559 435.845 303.902 443.378 294.329C444.57 292.809 446.029 291.945 447.754 291.736C449.48 291.527 451.082 291.974 452.559 293.077C454.037 294.18 454.877 295.564 455.079 297.228C455.25 298.645 454.815 300.089 453.774 301.559C450.63 306.067 446.816 310.843 442.33 315.889L453.443 327.112C458.846 332.743 461.672 336.59 461.922 338.655C462.128 340.349 461.623 341.864 460.409 343.199C459.199 344.565 457.731 345.353 456.005 345.562Z"/>
<path d="M493.455 341.491C486.082 342.319 479.855 341.237 474.772 338.247C469.154 334.942 465.948 329.757 465.156 322.694C464.28 314.89 465.59 308.059 469.087 302.2C472.981 295.704 478.799 292.022 486.541 291.153C491.908 290.551 496.462 290.914 500.203 292.243C505.117 294.003 507.844 297.289 508.384 302.101C508.765 305.494 507.205 308.714 503.705 311.762C502.113 313.159 498.84 315.306 493.887 318.205L479.068 326.848C480.729 328.286 482.653 329.288 484.84 329.855C487.028 330.422 489.479 330.553 492.193 330.248C496.326 329.784 499.732 328.543 502.41 326.525C504.801 324.726 506.767 323.74 508.31 323.567C511.518 323.207 513.296 324.585 513.646 327.7C514.04 331.217 511.787 334.374 506.885 337.173C502.774 339.509 498.297 340.948 493.455 341.491ZM487.798 302.35C484.929 302.672 482.584 303.903 480.763 306.044C478.942 308.185 477.629 311.237 476.824 315.2C480.14 313.298 483.442 311.412 486.731 309.544C490.684 307.195 493.804 305.08 496.092 303.199C493.894 302.259 491.129 301.976 487.798 302.35Z"/>
<path d="M553.017 276.756C551.04 276.952 549.26 276.458 547.676 275.274C546.093 274.09 545.206 272.541 545.016 270.626C544.825 268.711 545.39 267.017 546.71 265.545C548.03 264.073 549.678 263.238 551.655 263.042C553.632 262.845 555.396 263.341 556.949 264.528C558.533 265.712 559.42 267.261 559.61 269.176C559.8 271.091 559.235 272.785 557.916 274.257C556.627 275.727 554.994 276.559 553.017 276.756ZM560.329 310.325C560.504 312.085 560.831 314.907 561.31 318.79C561.82 322.669 562.163 325.489 562.337 327.25C562.515 329.041 562.06 330.584 560.972 331.877C559.881 333.139 558.409 333.863 556.556 334.047C554.703 334.231 553.117 333.811 551.799 332.788C550.478 331.734 549.728 330.311 549.55 328.52C549.375 326.759 549.033 323.939 548.523 320.06C548.043 316.177 547.716 313.356 547.541 311.595C547.268 308.846 547.081 305.387 546.978 301.217C546.876 297.048 546.688 293.589 546.415 290.84C546.237 289.048 546.694 287.521 547.785 286.259C548.873 284.965 550.344 284.227 552.197 284.043C554.05 283.858 555.637 284.293 556.959 285.347C558.277 286.371 559.025 287.778 559.203 289.569C559.476 292.318 559.663 295.778 559.766 299.947C559.868 304.117 560.056 307.576 560.329 310.325Z"/>
<path d="M605.722 290.372C605.073 290.431 604.298 290.485 603.399 290.536C602.528 290.553 601.768 290.591 601.119 290.65C599.851 290.765 598.394 291.022 596.747 291.422C598.44 303.859 599.46 311.995 599.809 315.828C599.845 316.229 599.93 316.985 600.062 318.095C600.191 319.174 600.287 320.054 600.349 320.734C600.995 327.844 599.077 331.602 594.595 332.01C592.895 332.165 591.379 331.773 590.047 330.834C588.586 329.845 587.779 328.516 587.627 326.847C587.526 325.734 587.421 324.06 587.311 321.826C587.201 319.592 587.096 317.919 586.995 316.806C586.654 313.066 585.648 305.085 583.975 292.864C582.05 292.945 579.122 292.962 575.191 292.915C571.288 292.833 569.173 291 568.847 287.414C568.689 285.683 569.143 284.161 570.208 282.849C571.273 281.537 572.733 280.796 574.588 280.627C575.731 280.523 578.376 280.47 582.521 280.467C582.4 279.48 582.173 277.849 581.842 275.573C581.538 273.606 581.337 272.081 581.239 270.999C581.081 269.268 581.584 267.773 582.748 266.514C583.911 265.255 585.389 264.544 587.182 264.381C591.757 263.965 594.394 267.606 595.094 275.303L595.347 279.113C597.239 278.661 598.787 278.38 599.993 278.27C603.547 277.947 605.995 277.958 607.336 278.303C609.887 278.944 611.295 280.717 611.559 283.623C611.72 285.385 611.25 286.908 610.152 288.192C609.053 289.476 607.576 290.203 605.722 290.372Z"/>
<path d="M685.171 293.953C684.399 301.322 684.183 309.056 684.521 317.154C684.938 327.176 683.793 334.557 681.087 339.297C677.47 345.628 670.507 349.168 660.198 349.916C648.156 350.79 641.961 348.844 641.615 344.076C641.492 342.373 641.933 340.957 642.94 339.825C643.948 338.694 645.333 338.064 647.098 337.936C648.491 337.835 650.507 337.953 653.146 338.291C655.784 338.628 658.11 338.724 660.122 338.578C664.735 338.243 668.038 336.587 670.031 333.611C671.936 330.703 672.857 326.232 672.792 320.199C671.33 321.924 669.638 323.26 667.715 324.209C665.792 325.158 663.654 325.718 661.301 325.888C655.141 326.336 649.981 324.703 645.821 320.99C641.69 317.245 639.398 312.245 638.944 305.991C638.333 297.571 640.408 290.574 645.169 285C650.103 279.227 657.105 276.011 666.175 275.352C669.085 275.141 671.619 275.315 673.776 275.874C675.933 276.433 677.714 277.393 679.12 278.754C683.085 278.933 685.219 281.112 685.523 285.291C685.673 287.366 685.556 290.253 685.171 293.953ZM666.48 285.974C661.248 286.353 657.302 288.367 654.641 292.015C652.268 295.33 651.262 299.48 651.624 304.464C651.891 308.148 652.789 310.868 654.317 312.625C655.845 314.381 658.002 315.158 660.788 314.956C663.326 314.771 665.774 313.115 668.13 309.988C670.342 307.026 671.52 304.171 671.662 301.422C672.035 298.408 672.38 293.73 672.698 287.389C671.6 286.847 670.529 286.458 669.485 286.222C668.441 285.987 667.439 285.904 666.48 285.974Z"/>
<path d="M729.811 285.44C729.813 290.198 727.8 292.695 723.772 292.934C719.868 293.165 717.796 291.267 717.558 287.239L717.047 282.558C710.142 284.087 705.365 287.961 702.718 294.181L704.149 317.556C704.253 319.322 703.735 320.815 702.595 322.033C701.456 323.282 699.957 323.961 698.098 324.071C696.177 324.185 694.653 323.653 693.526 322.476C692.469 321.42 691.888 320.024 691.786 318.288L689.983 287.846C689.926 286.885 689.872 285.458 689.822 283.564C689.771 281.64 689.716 280.197 689.659 279.237C689.557 277.501 689.982 276.03 690.937 274.823C691.921 273.584 693.373 272.907 695.294 272.793C698.734 272.589 700.883 274.234 701.743 277.728C706.985 273.313 712.953 270.908 719.645 270.511C725.842 270.144 729.185 274.082 729.673 282.324C729.767 283.904 729.813 284.943 729.811 285.44Z"/>
<path d="M765.119 319.514C757.708 319.841 751.568 318.342 746.699 315.015C741.316 311.338 738.469 305.949 738.155 298.847C737.809 291.002 739.578 284.275 743.463 278.667C747.786 272.448 753.84 269.167 761.623 268.824C767.018 268.585 771.538 269.256 775.18 270.835C779.964 272.923 782.463 276.385 782.676 281.223C782.827 284.634 781.053 287.741 777.356 290.546C775.672 291.832 772.262 293.753 767.124 296.31L751.755 303.933C753.315 305.479 755.167 306.609 757.311 307.323C759.455 308.036 761.892 308.332 764.62 308.212C768.776 308.028 772.257 307.02 775.066 305.187C777.573 303.554 779.601 302.703 781.152 302.635C784.377 302.492 786.058 303.987 786.196 307.119C786.352 310.654 783.891 313.652 778.811 316.114C774.552 318.166 769.988 319.299 765.119 319.514ZM762.12 280.08C759.236 280.207 756.813 281.277 754.852 283.29C752.89 285.303 751.374 288.26 750.303 292.159C753.74 290.485 757.162 288.827 760.57 287.186C764.672 285.109 767.928 283.21 770.338 281.488C768.208 280.401 765.469 279.932 762.12 280.08Z"/>
<path d="M817.834 317.613C810.418 317.822 804.303 316.225 799.487 312.821C794.164 309.059 791.402 303.625 791.201 296.52C790.98 288.67 792.855 281.972 796.829 276.426C801.25 270.277 807.355 267.093 815.143 266.873C820.542 266.72 825.05 267.462 828.667 269.099C833.417 271.263 835.86 274.765 835.997 279.605C836.093 283.018 834.27 286.097 830.529 288.842C828.825 290.101 825.385 291.968 820.207 294.443L804.719 301.821C806.253 303.392 808.087 304.551 810.22 305.298C812.352 306.045 814.784 306.38 817.514 306.303C821.672 306.186 825.169 305.233 828.007 303.445C830.539 301.852 832.581 301.034 834.132 300.99C837.359 300.899 839.016 302.42 839.105 305.554C839.205 309.091 836.696 312.049 831.577 314.43C827.286 316.414 822.705 317.475 817.834 317.613ZM815.461 278.135C812.576 278.217 810.136 279.248 808.143 281.23C806.149 283.211 804.586 286.143 803.454 290.026C806.917 288.406 810.365 286.803 813.798 285.216C817.933 283.205 821.219 281.357 823.656 279.674C821.544 278.554 818.812 278.041 815.461 278.135Z"/>
<path d="M884.131 317.524C880.314 317.574 878.163 315.725 877.679 311.975C877.203 308.784 876.726 305.577 876.25 302.355C875.739 298.947 875.465 295.738 875.425 292.727C875.415 291.92 875.443 290.539 875.51 288.582C875.609 286.625 875.653 285.243 875.642 284.436C875.64 284.219 875.664 283.676 875.714 282.806C875.764 281.905 875.786 281.175 875.779 280.616C875.745 278.04 875.061 276.761 873.726 276.779C870.871 276.816 868.084 278.529 865.366 281.917C862.678 285.274 860.592 289.523 859.107 294.664C859.058 295.689 858.936 297.056 858.742 298.766C858.574 300.165 858.498 301.532 858.516 302.867C858.527 303.736 858.638 305.054 858.847 306.82C859.087 308.555 859.213 309.858 859.224 310.727C859.247 312.496 858.646 313.962 857.419 315.127C856.224 316.322 854.696 316.932 852.833 316.957C850.971 316.981 849.427 316.411 848.201 315.248C846.976 314.115 846.352 312.664 846.328 310.895C846.317 310.026 846.207 308.724 845.998 306.988C845.789 305.222 845.678 303.904 845.667 303.035C845.628 300.055 845.791 295.909 846.156 290.596C846.521 285.283 846.684 281.137 846.645 278.158C846.633 277.227 846.552 275.846 846.404 274.017C846.287 272.156 846.222 270.775 846.21 269.875C846.188 268.137 846.79 266.701 848.016 265.568C849.274 264.403 850.818 263.808 852.649 263.784C856.715 263.731 858.92 266.139 859.263 271.008L859.316 271.52C863.788 266.898 868.537 264.554 873.565 264.488C879.431 264.411 883.514 266.81 885.812 271.685C887.345 274.955 888.154 279.865 888.24 286.413L888.284 289.719C888.271 291.147 888.269 292.156 888.277 292.745C888.308 295.166 888.675 298.281 889.377 302.09C890.11 305.899 890.492 308.998 890.523 311.388C890.546 313.126 889.944 314.577 888.717 315.742C887.491 316.906 885.962 317.5 884.131 317.524Z"/>
</mask>
<path d="M293.987 327.462C293.279 332.632 292.363 340.415 291.237 350.811C291.125 354.366 291.026 357.903 290.94 361.423C290.272 365.962 288.246 368.461 284.863 368.92C282.741 369.209 280.966 368.713 279.54 367.435C278.327 366.347 277.606 364.957 277.376 363.265C276.7 358.283 276.936 352.064 278.085 344.609C279.795 333.445 280.694 327.262 280.781 326.06C281.03 321.202 281.294 316.342 281.574 311.48C282.073 304.772 282.975 300.233 284.282 297.863C285.616 295.457 287.513 294.088 289.974 293.754C292.773 293.374 295.025 294.509 296.732 297.159C298.326 299.667 300.392 304.963 302.93 313.044C305.373 320.888 308.562 329.257 312.494 338.151C314.76 328.541 316.659 318.071 318.191 306.743L319.333 295.781C320.397 291.157 322.667 288.61 326.142 288.138C329.495 287.682 332.333 289.897 334.656 294.781C335.612 296.75 336.857 300.497 338.39 306.021C341.954 318.881 345.723 329.802 349.699 338.785C353.727 347.917 355.798 352.898 355.91 353.729C356.157 355.543 355.641 357.164 354.362 358.591C353.159 359.882 351.712 360.642 350.02 360.872C346.668 361.327 343.851 359.266 341.569 354.689L337.47 343.875C335.241 338.54 332.562 330.806 329.433 320.675C328.608 324.984 327.196 331.77 325.196 341.031L323.58 349.896C322.898 353.403 322.087 356.317 321.149 358.637C319.908 361.719 317.826 363.458 314.904 363.855C312.013 364.247 309.567 362.841 307.565 359.636L303.816 351.405C300.348 343.857 297.072 335.876 293.987 327.462Z" fill="#FF3939"/>
<path d="M407.181 352.706C405.765 352.887 403.32 351.635 399.847 348.951C397.188 350.668 394.825 352.003 392.756 352.957C390.692 353.941 388.905 354.529 387.397 354.723C379.977 355.673 374.15 354.4 369.916 350.906C365.713 347.407 363.105 341.702 362.092 333.789C361.142 326.369 363.07 319.676 367.876 313.71C372.678 307.712 378.897 304.225 386.532 303.247C389.457 302.873 392.95 303.271 397.011 304.44C401.917 305.846 404.539 307.873 404.878 310.521C405.02 311.629 404.79 312.644 404.188 313.566C404.038 314.837 403.991 316.424 404.046 318.325C404.129 320.192 404.33 322.373 404.649 324.866C405.402 330.747 406.36 334.927 407.522 337.407C407.65 337.672 408.563 339.182 410.262 341.938C411.801 344.432 412.595 345.863 412.642 346.233C412.851 347.865 412.393 349.3 411.269 350.539C410.176 351.775 408.813 352.497 407.181 352.706ZM391.672 322.491C391.545 321.506 391.463 320.375 391.425 319.096C391.413 317.784 391.445 316.324 391.521 314.719C390.866 314.49 390.284 314.345 389.776 314.285C389.294 314.19 388.884 314.165 388.546 314.208C384.359 314.744 380.906 316.86 378.187 320.557C375.465 324.222 374.379 328.21 374.931 332.521C375.46 336.646 376.597 339.661 378.342 341.565C380.084 343.439 382.433 344.187 385.389 343.808C387.298 343.564 389.059 343.025 390.674 342.193C392.315 341.325 393.811 340.179 395.162 338.755C393.3 331.545 392.137 326.124 391.672 322.491Z" fill="#FF3939"/>
<path d="M456.005 345.562C453.571 345.856 451.58 344.909 450.033 342.72C448.184 340.099 445.518 337.061 442.036 333.605C436.632 328.225 433.769 325.367 433.447 325.031C431.202 327.147 429.336 328.78 427.849 329.929C428.06 334.25 428.402 338.366 428.876 342.28C429.092 344.067 428.67 345.619 427.61 346.935C426.55 348.252 425.096 349.022 423.247 349.246C418.902 349.772 416.416 347.446 415.79 342.269C415.495 339.835 415.224 336.178 414.978 331.3C414.758 326.386 414.501 322.712 414.206 320.278C413.665 315.81 413.11 310.703 412.539 304.956C411.996 299.175 411.457 294.082 410.924 289.675C410.763 288.35 410.498 286.804 410.128 285.035C409.784 283.232 409.532 281.668 409.372 280.343C409.156 278.556 409.579 277.019 410.643 275.734C411.703 274.417 413.158 273.647 415.006 273.423C416.855 273.199 418.451 273.6 419.795 274.626C421.135 275.62 421.913 277.011 422.129 278.799C422.293 280.154 422.564 281.747 422.942 283.578C423.32 285.408 423.591 287.001 423.755 288.357C424.199 292.023 424.632 296.379 425.056 301.425C425.453 306.254 425.894 310.546 426.38 314.302C430.179 310.559 435.845 303.902 443.378 294.329C444.57 292.809 446.029 291.945 447.754 291.736C449.48 291.527 451.082 291.974 452.559 293.077C454.037 294.18 454.877 295.564 455.079 297.228C455.25 298.645 454.815 300.089 453.774 301.559C450.63 306.067 446.816 310.843 442.33 315.889L453.443 327.112C458.846 332.743 461.672 336.59 461.922 338.655C462.128 340.349 461.623 341.864 460.409 343.199C459.199 344.565 457.731 345.353 456.005 345.562Z" fill="#FF3939"/>
<path d="M493.455 341.491C486.082 342.319 479.855 341.237 474.772 338.247C469.154 334.942 465.948 329.757 465.156 322.694C464.28 314.89 465.59 308.059 469.087 302.2C472.981 295.704 478.799 292.022 486.541 291.153C491.908 290.551 496.462 290.914 500.203 292.243C505.117 294.003 507.844 297.289 508.384 302.101C508.765 305.494 507.205 308.714 503.705 311.762C502.113 313.159 498.84 315.306 493.887 318.205L479.068 326.848C480.729 328.286 482.653 329.288 484.84 329.855C487.028 330.422 489.479 330.553 492.193 330.248C496.326 329.784 499.732 328.543 502.41 326.525C504.801 324.726 506.767 323.74 508.31 323.567C511.518 323.207 513.296 324.585 513.646 327.7C514.04 331.217 511.787 334.374 506.885 337.173C502.774 339.509 498.297 340.948 493.455 341.491ZM487.798 302.35C484.929 302.672 482.584 303.903 480.763 306.044C478.942 308.185 477.629 311.237 476.824 315.2C480.14 313.298 483.442 311.412 486.731 309.544C490.684 307.195 493.804 305.08 496.092 303.199C493.894 302.259 491.129 301.976 487.798 302.35Z" fill="#FF3939"/>
<path d="M553.017 276.756C551.04 276.952 549.26 276.458 547.676 275.274C546.093 274.09 545.206 272.541 545.016 270.626C544.825 268.711 545.39 267.017 546.71 265.545C548.03 264.073 549.678 263.238 551.655 263.042C553.632 262.845 555.396 263.341 556.949 264.528C558.533 265.712 559.42 267.261 559.61 269.176C559.8 271.091 559.235 272.785 557.916 274.257C556.627 275.727 554.994 276.559 553.017 276.756ZM560.329 310.325C560.504 312.085 560.831 314.907 561.31 318.79C561.82 322.669 562.163 325.489 562.337 327.25C562.515 329.041 562.06 330.584 560.972 331.877C559.881 333.139 558.409 333.863 556.556 334.047C554.703 334.231 553.117 333.811 551.799 332.788C550.478 331.734 549.728 330.311 549.55 328.52C549.375 326.759 549.033 323.939 548.523 320.06C548.043 316.177 547.716 313.356 547.541 311.595C547.268 308.846 547.081 305.387 546.978 301.217C546.876 297.048 546.688 293.589 546.415 290.84C546.237 289.048 546.694 287.521 547.785 286.259C548.873 284.965 550.344 284.227 552.197 284.043C554.05 283.858 555.637 284.293 556.959 285.347C558.277 286.371 559.025 287.778 559.203 289.569C559.476 292.318 559.663 295.778 559.766 299.947C559.868 304.117 560.056 307.576 560.329 310.325Z" fill="#FF3939"/>
<path d="M605.722 290.372C605.073 290.431 604.298 290.485 603.399 290.536C602.528 290.553 601.768 290.591 601.119 290.65C599.851 290.765 598.394 291.022 596.747 291.422C598.44 303.859 599.46 311.995 599.809 315.828C599.845 316.229 599.93 316.985 600.062 318.095C600.191 319.174 600.287 320.054 600.349 320.734C600.995 327.844 599.077 331.602 594.595 332.01C592.895 332.165 591.379 331.773 590.047 330.834C588.586 329.845 587.779 328.516 587.627 326.847C587.526 325.734 587.421 324.06 587.311 321.826C587.201 319.592 587.096 317.919 586.995 316.806C586.654 313.066 585.648 305.085 583.975 292.864C582.05 292.945 579.122 292.962 575.191 292.915C571.288 292.833 569.173 291 568.847 287.414C568.689 285.683 569.143 284.161 570.208 282.849C571.273 281.537 572.733 280.796 574.588 280.627C575.731 280.523 578.376 280.47 582.521 280.467C582.4 279.48 582.173 277.849 581.842 275.573C581.538 273.606 581.337 272.081 581.239 270.999C581.081 269.268 581.584 267.773 582.748 266.514C583.911 265.255 585.389 264.544 587.182 264.381C591.757 263.965 594.394 267.606 595.094 275.303L595.347 279.113C597.239 278.661 598.787 278.38 599.993 278.27C603.547 277.947 605.995 277.958 607.336 278.303C609.887 278.944 611.295 280.717 611.559 283.623C611.72 285.385 611.25 286.908 610.152 288.192C609.053 289.476 607.576 290.203 605.722 290.372Z" fill="#FF3939"/>
<path d="M685.171 293.953C684.399 301.322 684.183 309.056 684.521 317.154C684.938 327.176 683.793 334.557 681.087 339.297C677.47 345.628 670.507 349.168 660.198 349.916C648.156 350.79 641.961 348.844 641.615 344.076C641.492 342.373 641.933 340.957 642.94 339.825C643.948 338.694 645.333 338.064 647.098 337.936C648.491 337.835 650.507 337.953 653.146 338.291C655.784 338.628 658.11 338.724 660.122 338.578C664.735 338.243 668.038 336.587 670.031 333.611C671.936 330.703 672.857 326.232 672.792 320.199C671.33 321.924 669.638 323.26 667.715 324.209C665.792 325.158 663.654 325.718 661.301 325.888C655.141 326.336 649.981 324.703 645.821 320.99C641.69 317.245 639.398 312.245 638.944 305.991C638.333 297.571 640.408 290.574 645.169 285C650.103 279.227 657.105 276.011 666.175 275.352C669.085 275.141 671.619 275.315 673.776 275.874C675.933 276.433 677.714 277.393 679.12 278.754C683.085 278.933 685.219 281.112 685.523 285.291C685.673 287.366 685.556 290.253 685.171 293.953ZM666.48 285.974C661.248 286.353 657.302 288.367 654.641 292.015C652.268 295.33 651.262 299.48 651.624 304.464C651.891 308.148 652.789 310.868 654.317 312.625C655.845 314.381 658.002 315.158 660.788 314.956C663.326 314.771 665.774 313.115 668.13 309.988C670.342 307.026 671.52 304.171 671.662 301.422C672.035 298.408 672.38 293.73 672.698 287.389C671.6 286.847 670.529 286.458 669.485 286.222C668.441 285.987 667.439 285.904 666.48 285.974Z" fill="#FF3939"/>
<path d="M729.811 285.44C729.813 290.198 727.8 292.695 723.772 292.934C719.868 293.165 717.796 291.267 717.558 287.239L717.047 282.558C710.142 284.087 705.365 287.961 702.718 294.181L704.149 317.556C704.253 319.322 703.735 320.815 702.595 322.033C701.456 323.282 699.957 323.961 698.098 324.071C696.177 324.185 694.653 323.653 693.526 322.476C692.469 321.42 691.888 320.024 691.786 318.288L689.983 287.846C689.926 286.885 689.872 285.458 689.822 283.564C689.771 281.64 689.716 280.197 689.659 279.237C689.557 277.501 689.982 276.03 690.937 274.823C691.921 273.584 693.373 272.907 695.294 272.793C698.734 272.589 700.883 274.234 701.743 277.728C706.985 273.313 712.953 270.908 719.645 270.511C725.842 270.144 729.185 274.082 729.673 282.324C729.767 283.904 729.813 284.943 729.811 285.44Z" fill="#FF3939"/>
<path d="M765.119 319.514C757.708 319.841 751.568 318.342 746.699 315.015C741.316 311.338 738.469 305.949 738.155 298.847C737.809 291.002 739.578 284.275 743.463 278.667C747.786 272.448 753.84 269.167 761.623 268.824C767.018 268.585 771.538 269.256 775.18 270.835C779.964 272.923 782.463 276.385 782.676 281.223C782.827 284.634 781.053 287.741 777.356 290.546C775.672 291.832 772.262 293.753 767.124 296.31L751.755 303.933C753.315 305.479 755.167 306.609 757.311 307.323C759.455 308.036 761.892 308.332 764.62 308.212C768.776 308.028 772.257 307.02 775.066 305.187C777.573 303.554 779.601 302.703 781.152 302.635C784.377 302.492 786.058 303.987 786.196 307.119C786.352 310.654 783.891 313.652 778.811 316.114C774.552 318.166 769.988 319.299 765.119 319.514ZM762.12 280.08C759.236 280.207 756.813 281.277 754.852 283.29C752.89 285.303 751.374 288.26 750.303 292.159C753.74 290.485 757.162 288.827 760.57 287.186C764.672 285.109 767.928 283.21 770.338 281.488C768.208 280.401 765.469 279.932 762.12 280.08Z" fill="#FF3939"/>
<path d="M817.834 317.613C810.418 317.822 804.303 316.225 799.487 312.821C794.164 309.059 791.402 303.625 791.201 296.52C790.98 288.67 792.855 281.972 796.829 276.426C801.25 270.277 807.355 267.093 815.143 266.873C820.542 266.72 825.05 267.462 828.667 269.099C833.417 271.263 835.86 274.765 835.997 279.605C836.093 283.018 834.27 286.097 830.529 288.842C828.825 290.101 825.385 291.968 820.207 294.443L804.719 301.821C806.253 303.392 808.087 304.551 810.22 305.298C812.352 306.045 814.784 306.38 817.514 306.303C821.672 306.186 825.169 305.233 828.007 303.445C830.539 301.852 832.581 301.034 834.132 300.99C837.359 300.899 839.016 302.42 839.105 305.554C839.205 309.091 836.696 312.049 831.577 314.43C827.286 316.414 822.705 317.475 817.834 317.613ZM815.461 278.135C812.576 278.217 810.136 279.248 808.143 281.23C806.149 283.211 804.586 286.143 803.454 290.026C806.917 288.406 810.365 286.803 813.798 285.216C817.933 283.205 821.219 281.357 823.656 279.674C821.544 278.554 818.812 278.041 815.461 278.135Z" fill="#FF3939"/>
<path d="M884.131 317.524C880.314 317.574 878.163 315.725 877.679 311.975C877.203 308.784 876.726 305.577 876.25 302.355C875.739 298.947 875.465 295.738 875.425 292.727C875.415 291.92 875.443 290.539 875.51 288.582C875.609 286.625 875.653 285.243 875.642 284.436C875.64 284.219 875.664 283.676 875.714 282.806C875.764 281.905 875.786 281.175 875.779 280.616C875.745 278.04 875.061 276.761 873.726 276.779C870.871 276.816 868.084 278.529 865.366 281.917C862.678 285.274 860.592 289.523 859.107 294.664C859.058 295.689 858.936 297.056 858.742 298.766C858.574 300.165 858.498 301.532 858.516 302.867C858.527 303.736 858.638 305.054 858.847 306.82C859.087 308.555 859.213 309.858 859.224 310.727C859.247 312.496 858.646 313.962 857.419 315.127C856.224 316.322 854.696 316.932 852.833 316.957C850.971 316.981 849.427 316.411 848.201 315.248C846.976 314.115 846.352 312.664 846.328 310.895C846.317 310.026 846.207 308.724 845.998 306.988C845.789 305.222 845.678 303.904 845.667 303.035C845.628 300.055 845.791 295.909 846.156 290.596C846.521 285.283 846.684 281.137 846.645 278.158C846.633 277.227 846.552 275.846 846.404 274.017C846.287 272.156 846.222 270.775 846.21 269.875C846.188 268.137 846.79 266.701 848.016 265.568C849.274 264.403 850.818 263.808 852.649 263.784C856.715 263.731 858.92 266.139 859.263 271.008L859.316 271.52C863.788 266.898 868.537 264.554 873.565 264.488C879.431 264.411 883.514 266.81 885.812 271.685C887.345 274.955 888.154 279.865 888.24 286.413L888.284 289.719C888.271 291.147 888.269 292.156 888.277 292.745C888.308 295.166 888.675 298.281 889.377 302.09C890.11 305.899 890.492 308.998 890.523 311.388C890.546 313.126 889.944 314.577 888.717 315.742C887.491 316.906 885.962 317.5 884.131 317.524Z" fill="#FF3939"/>
<path d="M293.987 327.462C293.279 332.632 292.363 340.415 291.237 350.811C291.125 354.366 291.026 357.903 290.94 361.423C290.272 365.962 288.246 368.461 284.863 368.92C282.741 369.209 280.966 368.713 279.54 367.435C278.327 366.347 277.606 364.957 277.376 363.265C276.7 358.283 276.936 352.064 278.085 344.609C279.795 333.445 280.694 327.262 280.781 326.06C281.03 321.202 281.294 316.342 281.574 311.48C282.073 304.772 282.975 300.233 284.282 297.863C285.616 295.457 287.513 294.088 289.974 293.754C292.773 293.374 295.025 294.509 296.732 297.159C298.326 299.667 300.392 304.963 302.93 313.044C305.373 320.888 308.562 329.257 312.494 338.151C314.76 328.541 316.659 318.071 318.191 306.743L319.333 295.781C320.397 291.157 322.667 288.61 326.142 288.138C329.495 287.682 332.333 289.897 334.656 294.781C335.612 296.75 336.857 300.497 338.39 306.021C341.954 318.881 345.723 329.802 349.699 338.785C353.727 347.917 355.798 352.898 355.91 353.729C356.157 355.543 355.641 357.164 354.362 358.591C353.159 359.882 351.712 360.642 350.02 360.872C346.668 361.327 343.851 359.266 341.569 354.689L337.47 343.875C335.241 338.54 332.562 330.806 329.433 320.675C328.608 324.984 327.196 331.77 325.196 341.031L323.58 349.896C322.898 353.403 322.087 356.317 321.149 358.637C319.908 361.719 317.826 363.458 314.904 363.855C312.013 364.247 309.567 362.841 307.565 359.636L303.816 351.405C300.348 343.857 297.072 335.876 293.987 327.462Z" stroke="white" stroke-width="22.1354" stroke-linecap="round" mask="url(#path-36-outside-1)"/>
<path d="M407.181 352.706C405.765 352.887 403.32 351.635 399.847 348.951C397.188 350.668 394.825 352.003 392.756 352.957C390.692 353.941 388.905 354.529 387.397 354.723C379.977 355.673 374.15 354.4 369.916 350.906C365.713 347.407 363.105 341.702 362.092 333.789C361.142 326.369 363.07 319.676 367.876 313.71C372.678 307.712 378.897 304.225 386.532 303.247C389.457 302.873 392.95 303.271 397.011 304.44C401.917 305.846 404.539 307.873 404.878 310.521C405.02 311.629 404.79 312.644 404.188 313.566C404.038 314.837 403.991 316.424 404.046 318.325C404.129 320.192 404.33 322.373 404.649 324.866C405.402 330.747 406.36 334.927 407.522 337.407C407.65 337.672 408.563 339.182 410.262 341.938C411.801 344.432 412.595 345.863 412.642 346.233C412.851 347.865 412.393 349.3 411.269 350.539C410.176 351.775 408.813 352.497 407.181 352.706ZM391.672 322.491C391.545 321.506 391.463 320.375 391.425 319.096C391.413 317.784 391.445 316.324 391.521 314.719C390.866 314.49 390.284 314.345 389.776 314.285C389.294 314.19 388.884 314.165 388.546 314.208C384.359 314.744 380.906 316.86 378.187 320.557C375.465 324.222 374.379 328.21 374.931 332.521C375.46 336.646 376.597 339.661 378.342 341.565C380.084 343.439 382.433 344.187 385.389 343.808C387.298 343.564 389.059 343.025 390.674 342.193C392.315 341.325 393.811 340.179 395.162 338.755C393.3 331.545 392.137 326.124 391.672 322.491Z" stroke="white" stroke-width="22.1354" stroke-linecap="round" mask="url(#path-36-outside-1)"/>
<path d="M456.005 345.562C453.571 345.856 451.58 344.909 450.033 342.72C448.184 340.099 445.518 337.061 442.036 333.605C436.632 328.225 433.769 325.367 433.447 325.031C431.202 327.147 429.336 328.78 427.849 329.929C428.06 334.25 428.402 338.366 428.876 342.28C429.092 344.067 428.67 345.619 427.61 346.935C426.55 348.252 425.096 349.022 423.247 349.246C418.902 349.772 416.416 347.446 415.79 342.269C415.495 339.835 415.224 336.178 414.978 331.3C414.758 326.386 414.501 322.712 414.206 320.278C413.665 315.81 413.11 310.703 412.539 304.956C411.996 299.175 411.457 294.082 410.924 289.675C410.763 288.35 410.498 286.804 410.128 285.035C409.784 283.232 409.532 281.668 409.372 280.343C409.156 278.556 409.579 277.019 410.643 275.734C411.703 274.417 413.158 273.647 415.006 273.423C416.855 273.199 418.451 273.6 419.795 274.626C421.135 275.62 421.913 277.011 422.129 278.799C422.293 280.154 422.564 281.747 422.942 283.578C423.32 285.408 423.591 287.001 423.755 288.357C424.199 292.023 424.632 296.379 425.056 301.425C425.453 306.254 425.894 310.546 426.38 314.302C430.179 310.559 435.845 303.902 443.378 294.329C444.57 292.809 446.029 291.945 447.754 291.736C449.48 291.527 451.082 291.974 452.559 293.077C454.037 294.18 454.877 295.564 455.079 297.228C455.25 298.645 454.815 300.089 453.774 301.559C450.63 306.067 446.816 310.843 442.33 315.889L453.443 327.112C458.846 332.743 461.672 336.59 461.922 338.655C462.128 340.349 461.623 341.864 460.409 343.199C459.199 344.565 457.731 345.353 456.005 345.562Z" stroke="white" stroke-width="22.1354" stroke-linecap="round" mask="url(#path-36-outside-1)"/>
<path d="M493.455 341.491C486.082 342.319 479.855 341.237 474.772 338.247C469.154 334.942 465.948 329.757 465.156 322.694C464.28 314.89 465.59 308.059 469.087 302.2C472.981 295.704 478.799 292.022 486.541 291.153C491.908 290.551 496.462 290.914 500.203 292.243C505.117 294.003 507.844 297.289 508.384 302.101C508.765 305.494 507.205 308.714 503.705 311.762C502.113 313.159 498.84 315.306 493.887 318.205L479.068 326.848C480.729 328.286 482.653 329.288 484.84 329.855C487.028 330.422 489.479 330.553 492.193 330.248C496.326 329.784 499.732 328.543 502.41 326.525C504.801 324.726 506.767 323.74 508.31 323.567C511.518 323.207 513.296 324.585 513.646 327.7C514.04 331.217 511.787 334.374 506.885 337.173C502.774 339.509 498.297 340.948 493.455 341.491ZM487.798 302.35C484.929 302.672 482.584 303.903 480.763 306.044C478.942 308.185 477.629 311.237 476.824 315.2C480.14 313.298 483.442 311.412 486.731 309.544C490.684 307.195 493.804 305.08 496.092 303.199C493.894 302.259 491.129 301.976 487.798 302.35Z" stroke="white" stroke-width="22.1354" stroke-linecap="round" mask="url(#path-36-outside-1)"/>
<path d="M553.017 276.756C551.04 276.952 549.26 276.458 547.676 275.274C546.093 274.09 545.206 272.541 545.016 270.626C544.825 268.711 545.39 267.017 546.71 265.545C548.03 264.073 549.678 263.238 551.655 263.042C553.632 262.845 555.396 263.341 556.949 264.528C558.533 265.712 559.42 267.261 559.61 269.176C559.8 271.091 559.235 272.785 557.916 274.257C556.627 275.727 554.994 276.559 553.017 276.756ZM560.329 310.325C560.504 312.085 560.831 314.907 561.31 318.79C561.82 322.669 562.163 325.489 562.337 327.25C562.515 329.041 562.06 330.584 560.972 331.877C559.881 333.139 558.409 333.863 556.556 334.047C554.703 334.231 553.117 333.811 551.799 332.788C550.478 331.734 549.728 330.311 549.55 328.52C549.375 326.759 549.033 323.939 548.523 320.06C548.043 316.177 547.716 313.356 547.541 311.595C547.268 308.846 547.081 305.387 546.978 301.217C546.876 297.048 546.688 293.589 546.415 290.84C546.237 289.048 546.694 287.521 547.785 286.259C548.873 284.965 550.344 284.227 552.197 284.043C554.05 283.858 555.637 284.293 556.959 285.347C558.277 286.371 559.025 287.778 559.203 289.569C559.476 292.318 559.663 295.778 559.766 299.947C559.868 304.117 560.056 307.576 560.329 310.325Z" stroke="white" stroke-width="22.1354" stroke-linecap="round" mask="url(#path-36-outside-1)"/>
<path d="M605.722 290.372C605.073 290.431 604.298 290.485 603.399 290.536C602.528 290.553 601.768 290.591 601.119 290.65C599.851 290.765 598.394 291.022 596.747 291.422C598.44 303.859 599.46 311.995 599.809 315.828C599.845 316.229 599.93 316.985 600.062 318.095C600.191 319.174 600.287 320.054 600.349 320.734C600.995 327.844 599.077 331.602 594.595 332.01C592.895 332.165 591.379 331.773 590.047 330.834C588.586 329.845 587.779 328.516 587.627 326.847C587.526 325.734 587.421 324.06 587.311 321.826C587.201 319.592 587.096 317.919 586.995 316.806C586.654 313.066 585.648 305.085 583.975 292.864C582.05 292.945 579.122 292.962 575.191 292.915C571.288 292.833 569.173 291 568.847 287.414C568.689 285.683 569.143 284.161 570.208 282.849C571.273 281.537 572.733 280.796 574.588 280.627C575.731 280.523 578.376 280.47 582.521 280.467C582.4 279.48 582.173 277.849 581.842 275.573C581.538 273.606 581.337 272.081 581.239 270.999C581.081 269.268 581.584 267.773 582.748 266.514C583.911 265.255 585.389 264.544 587.182 264.381C591.757 263.965 594.394 267.606 595.094 275.303L595.347 279.113C597.239 278.661 598.787 278.38 599.993 278.27C603.547 277.947 605.995 277.958 607.336 278.303C609.887 278.944 611.295 280.717 611.559 283.623C611.72 285.385 611.25 286.908 610.152 288.192C609.053 289.476 607.576 290.203 605.722 290.372Z" stroke="white" stroke-width="22.1354" stroke-linecap="round" mask="url(#path-36-outside-1)"/>
<path d="M685.171 293.953C684.399 301.322 684.183 309.056 684.521 317.154C684.938 327.176 683.793 334.557 681.087 339.297C677.47 345.628 670.507 349.168 660.198 349.916C648.156 350.79 641.961 348.844 641.615 344.076C641.492 342.373 641.933 340.957 642.94 339.825C643.948 338.694 645.333 338.064 647.098 337.936C648.491 337.835 650.507 337.953 653.146 338.291C655.784 338.628 658.11 338.724 660.122 338.578C664.735 338.243 668.038 336.587 670.031 333.611C671.936 330.703 672.857 326.232 672.792 320.199C671.33 321.924 669.638 323.26 667.715 324.209C665.792 325.158 663.654 325.718 661.301 325.888C655.141 326.336 649.981 324.703 645.821 320.99C641.69 317.245 639.398 312.245 638.944 305.991C638.333 297.571 640.408 290.574 645.169 285C650.103 279.227 657.105 276.011 666.175 275.352C669.085 275.141 671.619 275.315 673.776 275.874C675.933 276.433 677.714 277.393 679.12 278.754C683.085 278.933 685.219 281.112 685.523 285.291C685.673 287.366 685.556 290.253 685.171 293.953ZM666.48 285.974C661.248 286.353 657.302 288.367 654.641 292.015C652.268 295.33 651.262 299.48 651.624 304.464C651.891 308.148 652.789 310.868 654.317 312.625C655.845 314.381 658.002 315.158 660.788 314.956C663.326 314.771 665.774 313.115 668.13 309.988C670.342 307.026 671.52 304.171 671.662 301.422C672.035 298.408 672.38 293.73 672.698 287.389C671.6 286.847 670.529 286.458 669.485 286.222C668.441 285.987 667.439 285.904 666.48 285.974Z" stroke="white" stroke-width="22.1354" stroke-linecap="round" mask="url(#path-36-outside-1)"/>
<path d="M729.811 285.44C729.813 290.198 727.8 292.695 723.772 292.934C719.868 293.165 717.796 291.267 717.558 287.239L717.047 282.558C710.142 284.087 705.365 287.961 702.718 294.181L704.149 317.556C704.253 319.322 703.735 320.815 702.595 322.033C701.456 323.282 699.957 323.961 698.098 324.071C696.177 324.185 694.653 323.653 693.526 322.476C692.469 321.42 691.888 320.024 691.786 318.288L689.983 287.846C689.926 286.885 689.872 285.458 689.822 283.564C689.771 281.64 689.716 280.197 689.659 279.237C689.557 277.501 689.982 276.03 690.937 274.823C691.921 273.584 693.373 272.907 695.294 272.793C698.734 272.589 700.883 274.234 701.743 277.728C706.985 273.313 712.953 270.908 719.645 270.511C725.842 270.144 729.185 274.082 729.673 282.324C729.767 283.904 729.813 284.943 729.811 285.44Z" stroke="white" stroke-width="22.1354" stroke-linecap="round" mask="url(#path-36-outside-1)"/>
<path d="M765.119 319.514C757.708 319.841 751.568 318.342 746.699 315.015C741.316 311.338 738.469 305.949 738.155 298.847C737.809 291.002 739.578 284.275 743.463 278.667C747.786 272.448 753.84 269.167 761.623 268.824C767.018 268.585 771.538 269.256 775.18 270.835C779.964 272.923 782.463 276.385 782.676 281.223C782.827 284.634 781.053 287.741 777.356 290.546C775.672 291.832 772.262 293.753 767.124 296.31L751.755 303.933C753.315 305.479 755.167 306.609 757.311 307.323C759.455 308.036 761.892 308.332 764.62 308.212C768.776 308.028 772.257 307.02 775.066 305.187C777.573 303.554 779.601 302.703 781.152 302.635C784.377 302.492 786.058 303.987 786.196 307.119C786.352 310.654 783.891 313.652 778.811 316.114C774.552 318.166 769.988 319.299 765.119 319.514ZM762.12 280.08C759.236 280.207 756.813 281.277 754.852 283.29C752.89 285.303 751.374 288.26 750.303 292.159C753.74 290.485 757.162 288.827 760.57 287.186C764.672 285.109 767.928 283.21 770.338 281.488C768.208 280.401 765.469 279.932 762.12 280.08Z" stroke="white" stroke-width="22.1354" stroke-linecap="round" mask="url(#path-36-outside-1)"/>
<path d="M817.834 317.613C810.418 317.822 804.303 316.225 799.487 312.821C794.164 309.059 791.402 303.625 791.201 296.52C790.98 288.67 792.855 281.972 796.829 276.426C801.25 270.277 807.355 267.093 815.143 266.873C820.542 266.72 825.05 267.462 828.667 269.099C833.417 271.263 835.86 274.765 835.997 279.605C836.093 283.018 834.27 286.097 830.529 288.842C828.825 290.101 825.385 291.968 820.207 294.443L804.719 301.821C806.253 303.392 808.087 304.551 810.22 305.298C812.352 306.045 814.784 306.38 817.514 306.303C821.672 306.186 825.169 305.233 828.007 303.445C830.539 301.852 832.581 301.034 834.132 300.99C837.359 300.899 839.016 302.42 839.105 305.554C839.205 309.091 836.696 312.049 831.577 314.43C827.286 316.414 822.705 317.475 817.834 317.613ZM815.461 278.135C812.576 278.217 810.136 279.248 808.143 281.23C806.149 283.211 804.586 286.143 803.454 290.026C806.917 288.406 810.365 286.803 813.798 285.216C817.933 283.205 821.219 281.357 823.656 279.674C821.544 278.554 818.812 278.041 815.461 278.135Z" stroke="white" stroke-width="22.1354" stroke-linecap="round" mask="url(#path-36-outside-1)"/>
<path d="M884.131 317.524C880.314 317.574 878.163 315.725 877.679 311.975C877.203 308.784 876.726 305.577 876.25 302.355C875.739 298.947 875.465 295.738 875.425 292.727C875.415 291.92 875.443 290.539 875.51 288.582C875.609 286.625 875.653 285.243 875.642 284.436C875.64 284.219 875.664 283.676 875.714 282.806C875.764 281.905 875.786 281.175 875.779 280.616C875.745 278.04 875.061 276.761 873.726 276.779C870.871 276.816 868.084 278.529 865.366 281.917C862.678 285.274 860.592 289.523 859.107 294.664C859.058 295.689 858.936 297.056 858.742 298.766C858.574 300.165 858.498 301.532 858.516 302.867C858.527 303.736 858.638 305.054 858.847 306.82C859.087 308.555 859.213 309.858 859.224 310.727C859.247 312.496 858.646 313.962 857.419 315.127C856.224 316.322 854.696 316.932 852.833 316.957C850.971 316.981 849.427 316.411 848.201 315.248C846.976 314.115 846.352 312.664 846.328 310.895C846.317 310.026 846.207 308.724 845.998 306.988C845.789 305.222 845.678 303.904 845.667 303.035C845.628 300.055 845.791 295.909 846.156 290.596C846.521 285.283 846.684 281.137 846.645 278.158C846.633 277.227 846.552 275.846 846.404 274.017C846.287 272.156 846.222 270.775 846.21 269.875C846.188 268.137 846.79 266.701 848.016 265.568C849.274 264.403 850.818 263.808 852.649 263.784C856.715 263.731 858.92 266.139 859.263 271.008L859.316 271.52C863.788 266.898 868.537 264.554 873.565 264.488C879.431 264.411 883.514 266.81 885.812 271.685C887.345 274.955 888.154 279.865 888.24 286.413L888.284 289.719C888.271 291.147 888.269 292.156 888.277 292.745C888.308 295.166 888.675 298.281 889.377 302.09C890.11 305.899 890.492 308.998 890.523 311.388C890.546 313.126 889.944 314.577 888.717 315.742C887.491 316.906 885.962 317.5 884.131 317.524Z" stroke="white" stroke-width="22.1354" stroke-linecap="round" mask="url(#path-36-outside-1)"/>
</g>
<defs>
<filter id="filter0_ddd" x="961.185" y="87.824" width="96.3624" height="97.5822" filterUnits="userSpaceOnUse" color-interpolation-filters="sRGB">
<feFlood flood-opacity="0" result="BackgroundImageFix"/>
<feColorMatrix in="SourceAlpha" type="matrix" values="0 0 0 0 0 0 0 0 0 0 0 0 0 0 0 0 0 0 127 0"/>
<feOffset/>
<feGaussianBlur stdDeviation="0.609889"/>
<feColorMatrix type="matrix" values="0 0 0 0 0 0 0 0 0 0 0 0 0 0 0 0 0 0 0.04 0"/>
<feBlend mode="normal" in2="BackgroundImageFix" result="effect1_dropShadow"/>
<feColorMatrix in="SourceAlpha" type="matrix" values="0 0 0 0 0 0 0 0 0 0 0 0 0 0 0 0 0 0 127 0"/>
<feOffset dy="2.43955"/>
<feGaussianBlur stdDeviation="3.65933"/>
<feColorMatrix type="matrix" values="0 0 0 0 0 0 0 0 0 0 0 0 0 0 0 0 0 0 0.04 0"/>
<feBlend mode="normal" in2="effect1_dropShadow" result="effect2_dropShadow"/>
<feColorMatrix in="SourceAlpha" type="matrix" values="0 0 0 0 0 0 0 0 0 0 0 0 0 0 0 0 0 0 127 0"/>
<feOffset dy="12.1978"/>
<feGaussianBlur stdDeviation="12.1978"/>
<feColorMatrix type="matrix" values="0 0 0 0 0 0 0 0 0 0 0 0 0 0 0 0 0 0 0.04 0"/>
<feBlend mode="normal" in2="effect2_dropShadow" result="effect3_dropShadow"/>
<feBlend mode="normal" in="SourceGraphic" in2="effect3_dropShadow" result="shape"/>
</filter>
<filter id="filter1_d" x="681.48" y="23.4801" width="303.562" height="299.611" filterUnits="userSpaceOnUse" color-interpolation-filters="sRGB">
<feFlood flood-opacity="0" result="BackgroundImageFix"/>
<feColorMatrix in="SourceAlpha" type="matrix" values="0 0 0 0 0 0 0 0 0 0 0 0 0 0 0 0 0 0 127 0"/>
<feOffset dy="4"/>
<feGaussianBlur stdDeviation="7"/>
<feColorMatrix type="matrix" values="0 0 0 0 0 0 0 0 0 0 0 0 0 0 0 0 0 0 0.09 0"/>
<feBlend mode="normal" in2="BackgroundImageFix" result="effect1_dropShadow"/>
<feBlend mode="normal" in="SourceGraphic" in2="effect1_dropShadow" result="shape"/>
</filter>
<filter id="filter2_d" x="248.715" y="239.635" width="670.092" height="162.566" filterUnits="userSpaceOnUse" color-interpolation-filters="sRGB">
<feFlood flood-opacity="0" result="BackgroundImageFix"/>
<feColorMatrix in="SourceAlpha" type="matrix" values="0 0 0 0 0 0 0 0 0 0 0 0 0 0 0 0 0 0 127 0"/>
<feOffset dy="4.91897"/>
<feGaussianBlur stdDeviation="8.60819"/>
<feColorMatrix type="matrix" values="0 0 0 0 0 0 0 0 0 0 0 0 0 0 0 0 0 0 0.09 0"/>
<feBlend mode="normal" in2="BackgroundImageFix" result="effect1_dropShadow"/>
<feBlend mode="normal" in="SourceGraphic" in2="effect1_dropShadow" result="shape"/>
</filter>
<clipPath id="clip0">
<rect width="19.5164" height="19.5164" fill="white" transform="translate(23.1758 119.538)"/>
</clipPath>
</defs>
</svg>
