<svg width="182" height="26" viewBox="0 0 182 26" fill="none" xmlns="http://www.w3.org/2000/svg">
<g clip-path="url(#clip0)">
<path d="M36.7743 1.03516C35.3902 2.45643 34.9812 3.21341 33.9903 5.36077L24.8518 26.0001L18.3872 11.5402L12.0012 26.0001L2.78403 5.37622C1.84029 3.22886 1.41561 2.53367 0 1.03516H11.6866C10.8058 1.76124 10.3497 2.70361 10.3497 3.8777C10.3497 4.71193 10.4912 5.29897 10.9474 6.38038L14.4392 14.5681L17.0187 8.46594L15.5717 5.15994C14.7223 3.25976 14.1246 2.07021 13.2752 1.03516H24.9619C23.8294 1.76124 23.2631 2.70361 23.2631 3.8777C23.2631 4.71193 23.4047 5.29897 23.8608 6.38038L27.4313 14.5681L30.9546 6.38038C31.4107 5.29897 31.5838 4.71193 31.5838 3.92405C31.5838 2.88899 30.8445 1.63765 29.9951 1.0506H36.7743V1.03516Z" fill="black"/>
<path d="M48.9175 19.419C47.785 24.239 45.0639 25.8302 41.1159 25.8302C36.6017 25.8302 32.3706 22.6014 32.3706 16.5456C32.3706 10.7215 36.1141 6.59668 41.0215 6.59668C44.2302 6.59668 48.7445 8.21878 48.7445 15.0934H38.0802C38.8195 18.7702 41.2575 20.6704 44.6392 20.6704C46.3694 20.6549 47.5805 20.3459 48.9175 19.419ZM37.8757 12.6834V13.1314H42.5315C42.5315 9.67095 41.7608 8.58955 40.2665 8.58955C38.7566 8.58955 37.8757 10.0881 37.8757 12.6834Z" fill="black"/>
<path d="M70.3084 7.30719C67.3828 4.57279 64.4886 3.15152 62.2551 3.15152V18.4456C62.2551 21.5354 63.073 23.4046 65.2122 25.3048H51.874C54.0289 23.4046 54.8311 21.5199 54.8311 18.4456V3.15152C52.6133 3.15152 49.5776 4.57279 46.7778 7.30719L48.1934 0C49.1529 0.726084 50.9146 1.03506 52.8807 1.03506H64.1741C66.1559 1.03506 67.9176 0.726084 68.8613 0L70.3084 7.30719Z" fill="black"/>
<path d="M78.4246 25.3048H67.1941C68.5783 23.7136 69.176 22.663 69.176 20.1449V14.5216C69.176 12.5442 68.8928 11.6173 67.5559 10.3969L66.7852 9.70167L75.2631 6.58105V10.9067C76.081 8.40399 77.3393 6.58105 79.4313 6.58105C81.13 6.58105 82.2153 7.75515 82.2153 9.48539C82.2153 11.3238 81.0513 12.606 79.4313 12.606C79.0852 11.8027 78.2359 11.4319 77.4494 11.4319C76.8202 11.4319 76.2068 11.6019 75.8922 11.9108V19.9286C75.8765 22.6013 76.3326 23.3273 78.4246 25.3048Z" fill="black"/>
<path d="M101.609 22.1225C101.184 24.3008 99.344 25.8302 96.8431 25.8302C94.7196 25.8302 93.0996 24.5789 92.612 23.1576C91.5581 25.0269 89.5763 25.8302 87.4529 25.8302C84.5273 25.8302 82.5454 23.93 82.5454 21.3192C82.5454 18.2758 84.7632 16.1594 89.8908 14.9389L92.2502 14.3828V11.2622C92.2502 9.31563 91.5738 8.52776 90.3784 8.52776C89.246 8.52776 88.5067 9.25384 88.5067 10.258C88.5067 11.1231 88.9314 11.6793 89.6706 12.3745C89.6706 13.4868 87.909 14.63 86.0687 14.63C84.2756 14.63 83.0016 13.2705 83.0016 11.6175C83.0016 8.66679 86.3204 6.59668 91.1964 6.59668C96.2768 6.59668 98.9665 8.71314 98.9665 13.425V20.8712C98.9665 21.8136 99.5327 22.4315 100.414 22.4315C100.933 22.4315 101.326 22.3234 101.609 22.1225ZM92.2502 21.5973V16.0203L91.7941 16.1594C90.2841 16.6074 89.246 17.5806 89.246 19.5272C89.246 21.1956 89.9223 22.1998 91.0076 22.1998C91.5896 22.1843 92.0457 22.0144 92.2502 21.5973Z" fill="black"/>
<path d="M111.172 25.3048H101.672C102.663 24.3624 103.292 22.9875 103.292 20.1449V14.5216C103.292 12.6215 103.04 11.6482 101.877 10.5668L101.059 9.84071L109.804 6.58105V9.28456C110.826 7.61611 112.981 6.58105 115.136 6.58105C118.518 6.58105 120.39 8.38854 120.39 11.6019V21.319C120.39 23.2964 120.924 24.5014 121.774 25.3048H112.525C113.437 24.4396 113.689 23.2655 113.689 22.3232V12.4052C113.689 10.953 113.201 10.2269 111.817 10.2269C111.046 10.2269 110.402 10.505 109.977 10.9221V22.3232C110.008 23.2655 110.244 24.4087 111.172 25.3048Z" fill="black"/>
<path d="M123.519 24.3V18.3677C126.067 21.6274 128.71 23.4349 131.179 23.4349C132.375 23.4349 132.941 22.8169 132.941 21.9518C132.941 21.1176 132.485 20.6387 131.667 20.3297L127.577 18.8466C124.432 17.7034 123.032 15.8032 123.032 12.9607C123.032 9.28394 126.099 6.61133 130.472 6.61133C132.831 6.61133 135.442 7.27562 136.747 8.20253V13.2697C135.127 10.458 132.469 8.89772 129.905 8.89772C128.6 8.89772 127.923 9.31483 127.923 10.1182C127.923 10.9215 128.411 11.2305 129.512 11.6785L134.357 13.5941C136.795 14.5674 137.88 16.6066 137.88 19.0783C137.88 23.1413 134.876 25.8448 130.361 25.8448C128.112 25.8294 125.784 25.335 123.519 24.3Z" fill="black"/>
<path d="M138.588 8.8366L140.633 5.74688C143.244 1.86928 145.336 0 148.859 0C151.612 0 153.373 1.17409 153.373 2.95068C153.373 4.48009 152.099 5.59239 149.425 5.59239C149.425 3.44504 148.183 2.64171 146.956 2.64171C145.713 2.64171 144.77 3.50683 144.77 4.9281C144.77 5.90137 145.304 6.87463 146.924 7.10636H150.841L149.425 8.8366H147.019V19.1254C147.019 21.0719 147.333 22.8021 149.378 24.5633L150.227 25.2894H138.053C139.469 23.899 140.318 22.1996 140.318 19.7124V8.8366H138.588Z" fill="black"/>
<path d="M166.255 19.419C165.123 24.239 162.402 25.8302 158.454 25.8302C153.94 25.8302 149.708 22.6014 149.708 16.5456C149.708 10.7215 153.452 6.59668 158.359 6.59668C161.568 6.59668 166.082 8.21878 166.082 15.0934H155.418C156.157 18.7702 158.595 20.6704 161.977 20.6704C163.723 20.6549 164.918 20.3459 166.255 19.419ZM155.214 12.6834V13.1314H159.869C159.869 9.67095 159.099 8.58955 157.604 8.58955C156.094 8.58955 155.214 10.0881 155.214 12.6834Z" fill="black"/>
<path d="M178.083 25.3048H166.853C168.237 23.7136 168.835 22.663 168.835 20.1449V14.5216C168.835 12.5442 168.552 11.6173 167.215 10.3969L166.444 9.70167L174.922 6.58105V10.9067C175.74 8.40399 176.998 6.58105 179.09 6.58105C180.789 6.58105 181.874 7.75515 181.874 9.48539C181.874 11.3238 180.71 12.606 179.09 12.606C178.744 11.8027 177.895 11.4319 177.108 11.4319C176.479 11.4319 175.865 11.6019 175.551 11.9108V19.9286C175.535 22.6013 175.991 23.3273 178.083 25.3048Z" fill="black"/>
</g>
<defs>
<clipPath id="clip0">
<rect width="182" height="26" fill="white"/>
</clipPath>
</defs>
</svg>
